<?xml version="1.0" encoding="UTF-8" standalone="no"?>
<svg xmlns="http://www.w3.org/2000/svg" height="64" width="64" viewBox="0 0 64 64" version="1.1">
  <path
     d="m 53.711895,49.281254 h 0.0028 V 5.0937547 C 53.714695,4.4896733 53.256131,4 52.690409,4 H 15.816351 c -3.049892,0 -5.531103,2.6495 -5.531103,5.906254 v 44.1875 C 10.285248,57.3505 12.766459,60 15.816351,60 h 36.874076 c 0.414224,0 0.78778,-0.266551 0.946336,-0.675174 0.158544,-0.408622 0.07084,-0.879153 -0.221966,-1.191969 -1.010352,-1.078868 -1.56673,-2.513327 -1.56673,-4.039103 0,-1.525785 0.556378,-2.960234 1.56673,-4.039112 0.195738,-0.209122 0.29735,-0.488908 0.297454,-0.773388 z m -41.378436,-39.375 c 0,-2.0505607 1.562232,-3.718754 3.482546,-3.718754 h 2.867984 v 42 h -2.867984 c -1.318958,0 -2.530986,0.496234 -3.482546,1.32202 z M 50.665999,57.8125 H 15.816005 c -1.920314,0 -3.482546,-1.668184 -3.482546,-3.718746 0,-2.05057 1.562232,-3.718754 3.482546,-3.718754 h 34.849994 c -0.56644,1.130826 -0.866954,2.40002 -0.866954,3.718754 0,1.318735 0.300412,2.587919 0.866954,3.718746 z m 0.999788,-9.625 H 20.732535 v -42 h 30.933252 z"
     style="stroke-width:1" />
  <path
     style="fill:none;stroke:#000000;stroke-width:8;stroke-linecap:round;stroke-linejoin:miter;stroke-miterlimit:2;stroke-dasharray:none;stroke-opacity:1;paint-order:fill markers stroke"
     d="M 28.723427,18.409491 H 41.761406" />
</svg>
