<?xml version="1.0" encoding="UTF-8" standalone="no"?>
<svg xmlns="http://www.w3.org/2000/svg" version="1.1" viewBox="0 0 300 250" height="250" width="300">
  <g
     transform="translate(0,-267.62498)"
     id="layer1">
    <rect
       y="268.02185"
       x="0.39688107"
       height="249.20625"
       width="299.20624"
       id="rect4524"
       style="opacity:1;fill:none;fill-opacity:1;stroke:#becbe6;stroke-width:0.79374999;stroke-linecap:round;stroke-linejoin:miter;stroke-miterlimit:10;stroke-dasharray:none;stroke-opacity:1;paint-order:fill markers stroke" />
    <path
       style="fill:#aa00d4;stroke-width:0.26458305"
       id="path2"
       d="M 13.856052,388.35 29.856025,372.35006 13.856052,356.35 l -5.999991,6.00006 9.99998,10 -9.99998,9.99987 z" />
    <rect
       y="300.80515"
       x="46.153107"
       height="146.97719"
       width="132.83505"
       id="rect4526"
       style="opacity:1;fill:#f7f7f7;fill-opacity:1;stroke:#6600ff;stroke-width:4;stroke-linecap:round;stroke-linejoin:miter;stroke-miterlimit:10;stroke-dasharray:none;stroke-opacity:1;paint-order:fill markers stroke" />
    <path
       id="path4528"
       d="m 189.63533,360.625 h 92.42896"
       style="fill:#7137c8;stroke:#535d6c;stroke-width:3;stroke-linecap:butt;stroke-linejoin:miter;stroke-miterlimit:4;stroke-dasharray:none;stroke-opacity:1" />
    <path
       id="path4528-4"
       d="m 189.63533,385.625 h 92.42896"
       style="fill:#7137c8;stroke:#535d6c;stroke-width:3;stroke-linecap:butt;stroke-linejoin:miter;stroke-miterlimit:4;stroke-dasharray:none;stroke-opacity:1" />
    <path
       id="path4528-6"
       d="m 189.63533,410.625 h 92.42896"
       style="fill:#7137c8;stroke:#535d6c;stroke-width:3;stroke-linecap:butt;stroke-linejoin:miter;stroke-miterlimit:4;stroke-dasharray:none;stroke-opacity:1" />
    <path
       id="path4528-3"
       d="m 189.63533,435.625 h 92.42896"
       style="fill:#7137c8;stroke:#535d6c;stroke-width:3;stroke-linecap:butt;stroke-linejoin:miter;stroke-miterlimit:4;stroke-dasharray:none;stroke-opacity:1" />
    <path
       id="path4528-5"
       d="m 189.63533,325.625 h 92.42896"
       style="fill:#7137c8;stroke:#535d6c;stroke-width:20;stroke-linecap:butt;stroke-linejoin:miter;stroke-miterlimit:4;stroke-dasharray:none;stroke-opacity:1" />
    <path
       style="fill:#aa00d4;stroke-width:0.99999994"
       id="path4"
       d="m 84.675729,335.0122 c 0,-14.72145 11.931749,-26.6532 26.653201,-26.6532 14.72145,0 26.6532,11.93175 26.6532,26.6532 0,14.72145 -11.93175,26.6532 -26.6532,26.6532 -14.721452,0 -26.653201,-11.93175 -26.653201,-26.6532 z m 62.199681,35.5376 h -4.91751 l -27.63937,56.11832 10.337,-51.67612 -13.3266,-13.3266 -13.326602,13.3266 10.337002,51.67612 -27.63937,-56.11832 h -4.917516 c -17.759915,0 -17.759915,11.93619 -17.759915,26.6532 v 44.422 H 164.63533 v -44.422 c 0,-14.71701 0,-26.6532 -17.75992,-26.6532 z" />
    <rect
       y="464.48215"
       x="42.064289"
       height="40"
       width="240"
       id="rect4588"
       style="opacity:1;fill:#939dac;fill-opacity:1;stroke:#939dac;stroke-width:0;stroke-linecap:round;stroke-linejoin:miter;stroke-miterlimit:4;stroke-dasharray:none;stroke-opacity:1;paint-order:fill markers stroke" />
    <path
       style="fill:#ff7f2a;stroke-width:1.00000012"
       id="path4-1"
       d="m 17.034951,298.36856 -1e-6,44.56042 -6.287516,-6.28752 c -0.9687281,-0.96873 -2.5379769,-0.96873 -3.5067021,0 -0.9687239,0.96872 -0.9687239,2.53797 -1.2e-6,3.5067 l 10.5201063,10.52011 c 0.709229,0.70923 1.775266,0.92139 2.702793,0.53739 0.307713,-0.12712 0.577726,-0.31296 0.803033,-0.53828 l 8.75e-4,8.9e-4 10.520105,-10.52011 c 0.96873,-0.96873 0.968728,-2.53798 1e-6,-3.5067 -0.968728,-0.96873 -2.537977,-0.96873 -3.506702,0 l -6.287516,6.28752 2e-6,-44.56042 c -8.79e-4,-0.68467 -0.277028,-1.30449 -0.725891,-1.75334 -0.448857,-0.44886 -1.068662,-0.72677 -1.753348,-0.7259 -1.369366,0 -2.479238,1.10988 -2.479238,2.47924 z" />
    <path
       style="fill:#ff7f2a;stroke-width:1.00000012"
       id="path4-1-3"
       d="m 185,302.62498 -31.50897,31.50898 v -8.89189 c 0,-1.36999 -1.10962,-2.47962 -2.47961,-2.47961 -1.36998,-10e-6 -2.47961,1.10962 -2.47962,2.4796 v 14.87768 c 0,1.003 0.60379,1.90683 1.53117,2.29116 0.30748,0.1277 0.62982,0.18722 0.94846,0.18721 l -2e-5,10e-4 h 14.87769 c 1.36999,0 2.47961,-1.10963 2.47961,-2.47961 0,-1.36999 -1.10963,-2.47962 -2.47961,-2.47961 h -8.8919 l 31.50898,-31.50897 c 0.48351,-0.48476 0.72652,-1.11831 0.72651,-1.75308 0,-0.63479 -0.24175,-1.26957 -0.72651,-1.7531 -0.96829,-0.96828 -2.53789,-0.96828 -3.50618,0 z" />
  </g>
</svg>
