<?xml version="1.0" encoding="UTF-8" standalone="no"?>
<svg xmlns="http://www.w3.org/2000/svg" version="1.1" width="24" height="24" viewBox="0 0 24 24">
  <path
     style="stroke-width:1"
     d="m 13.714612,18.527061 v -2.545112 c 0,-0.240881 -0.187733,-0.44233 -0.428615,-0.44233 h -2.571685 c -0.240881,0 -0.428614,0.200592 -0.428614,0.44233 v 2.545112 c 0,0.240881 0.187733,0.44233 0.428614,0.44233 h 2.571685 c 0.240882,0 0.428615,-0.200592 0.428615,-0.44233 z m -0.02657,-5.008786 0.240881,-6.1480438 c 0,-0.080579 -0.04029,-0.187733 -0.133728,-0.2545968 C 13.714615,7.0487704 13.5946,6.9681911 13.473731,6.9681911 h -2.946295 c -0.120869,0 -0.240881,0.080579 -0.321461,0.1474433 -0.09344,0.066864 -0.133727,0.2005914 -0.133727,0.2811709 l 0.228022,6.1214697 c 0,0.174017 0.200592,0.307745 0.455189,0.307745 h 2.478248 c 0.240881,0 0.442329,-0.133728 0.455188,-0.307745 z M 13.500305,1.0078809 23.787047,19.866909 c 0.294887,0.522052 0.281171,1.164974 -0.02657,1.687883 -0.307749,0.52291 -0.870948,0.843513 -1.47358,0.843513 H 1.7134124 c -0.6026316,0 -1.16497349,-0.321461 -1.47357577,-0.843513 -0.30860228,-0.522052 -0.32146071,-1.164973 -0.0265741,-1.687883 L 10.500005,1.0078809 c 0.294886,-0.54948352 0.870944,-0.89751822 1.50015,-0.89751822 0.629205,0 1.205263,0.3480347 1.50015,0.89751822 z"
     />
</svg>
