<?xml version="1.0" encoding="UTF-8" standalone="no"?>
<svg xmlns="http://www.w3.org/2000/svg" version="1.1" width="24" height="24" viewBox="0 0 24 24">
  <path
     d="m 18.756611,6.3166154 c 0.170168,0.1726154 0.216667,0.4181538 0.107839,0.6350769 L 10.517294,23.639077 C 10.393624,23.855077 10.146287,24 9.8682794,24 9.8059494,24 9.7287814,23.98523 9.6516114,23.97139 9.3112744,23.870774 9.1104364,23.567082 9.1876064,23.264313 L 12.232828,11.610467 5.9563848,13.067082 c -0.062329,0.01477 -0.123669,0.01477 -0.1850087,0.01477 -0.1701684,0 -0.3551771,-0.05815 -0.4788461,-0.158769 -0.1850086,-0.144 -0.2473378,-0.360923 -0.2008382,-0.562154 L 8.1992441,0.46153848 C 8.2764131,0.18738463 8.5544209,1.9999998e-8 8.8799184,1.9999998e-8 h 5.0704236 c 0.386837,0 0.695514,0.274153850000002 0.695514,0.605538460000002 0,0.0867692 -0.03067,0.17261538 -0.07717,0.25938461 L 11.92514,7.5424616 18.047246,6.1292308 c 0.06233,-0.014769 0.123669,-0.028615 0.185008,-0.028615 0.200839,0 0.386837,0.086769 0.525346,0.216 z"
     style="stroke-width:1" />
</svg>
