<?xml version="1.0" encoding="UTF-8" standalone="no"?>
<svg xmlns="http://www.w3.org/2000/svg" version="1.1" width="24" height="24" viewBox="0 0 24 24">
  <path
     style="stroke-width:1"
     d="M 8.5705715,10.285714 C 8.5705715,11.236285 7.8068572,12 6.8562857,12 5.9057143,12 5.142,11.236285 5.142,10.285714 c 0,-0.9505712 0.7637143,-1.7142854 1.7142857,-1.7142854 0.9505715,0 1.7142858,0.7637142 1.7142858,1.7142854 z m 5.1428575,0 C 13.713429,11.236285 12.949714,12 11.999143,12 c -0.950572,0 -1.714286,-0.763715 -1.714286,-1.714286 0,-0.9505712 0.763714,-1.7142854 1.714286,-1.7142854 0.950571,0 1.714286,0.7637142 1.714286,1.7142854 z m 5.142857,0 C 18.856286,11.236285 18.092571,12 17.142,12 c -0.950571,0 -1.714286,-0.763715 -1.714286,-1.714286 0,-0.9505712 0.763715,-1.7142854 1.714286,-1.7142854 0.950571,0 1.714286,0.7637142 1.714286,1.7142854 z M 11.999143,3.4285714 c -5.5714287,0 -10.2857144,3.1337143 -10.2857144,6.8571426 0,1.995429 1.3397143,3.897429 3.6565714,5.209714 l 1.1648572,0.669429 -0.3617143,1.285714 c -0.2545715,0.950572 -0.5897143,1.687714 -0.9377143,2.304 1.3525714,-0.562286 2.5851429,-1.326 3.6831429,-2.290286 l 0.576,-0.509142 0.7637145,0.08057 c 0.576,0.06686 1.164857,0.107143 1.740857,0.107143 5.571428,0 10.285714,-3.133714 10.285714,-6.857143 0,-3.7234283 -4.714286,-6.8571426 -10.285714,-6.8571426 z m 12,6.8571426 c 0,4.740857 -5.370857,8.571429 -12,8.571429 -0.656572,0 -1.312286,-0.04029 -1.942286,-0.107143 C 8.3022857,20.304 6.2134286,21.402 3.8965714,21.990857 3.4148572,22.124571 2.892,22.218857 2.37,22.285714 h -0.066857 c -0.2682858,0 -0.5091429,-0.214286 -0.576,-0.509143 v -0.01371 C 1.6602857,21.427714 1.8874286,21.227143 2.0888571,20.986285 2.9322857,20.035714 3.8965714,19.231714 4.5265714,16.995428 1.7674286,15.428571 0,13.004571 0,10.285714 0,5.5577143 5.3708572,1.7142857 12,1.7142857 v 0 c 6.629143,0 12,3.8434286 12,8.5714283 z" />
</svg>
