<?xml version="1.0" encoding="UTF-8" standalone="no"?>
<svg
   xmlns="http://www.w3.org/2000/svg"
   viewBox="0 0 96 96"
   version="1.0"
   width="96"
   height="96">
	<g id="g899"><circle
     id="circle2"
     r="47"
     cy="48"
     cx="48.000004"
     style="fill:#e3f2fd;stroke-width:0.18646206;fill-opacity:1" /><rect
     x="45.796783"
     y="12.015619"
     style="fill:#183651;stroke-width:0.18646206"
     width="2.9375231"
     height="2.9375231"
     id="rect10" /><rect
     x="45.796783"
     y="81.046669"
     style="fill:#183651;stroke-width:0.18646206"
     width="2.9375231"
     height="2.9375231"
     id="rect12" /><rect
     x="-66.694466"
     y="-18.904177"
     transform="rotate(-119.9929)"
     style="fill:#183651;stroke-width:0.18646479"
     width="2.937566"
     height="2.937566"
     id="rect14" /><rect
     x="-66.743561"
     y="49.935436"
     transform="rotate(-120.00569)"
     style="fill:#183651;stroke-width:0.18646728"
     width="2.9376054"
     height="2.9376054"
     id="rect16" /><rect
     x="-100.9754"
     y="-19.327579"
     transform="rotate(-150.0071)"
     style="fill:#183651;stroke-width:0.18646479"
     width="2.937566"
     height="2.937566"
     id="rect18" /><rect
     x="-31.957359"
     y="-19.438566"
     transform="rotate(-150.0071)"
     style="fill:#183651;stroke-width:0.18646479"
     width="2.937566"
     height="2.937566"
     id="rect20" /><path
     style="fill:#183651;stroke-width:0.18646206"
     d="m 47.265546,94.999813 c -14.099888,0 -25.115507,-20.709409 -25.115507,-47 C 22.150039,21.709222 33.165658,1 47.265546,1 c 14.099888,0 25.115507,20.709409 25.115507,47 0,26.290591 -11.015433,46.999813 -25.115507,46.999813 z m 0,-91.0622897 C 35.075029,3.9375233 25.234307,23.765526 25.234307,48 c 0,24.234474 9.987468,44.062476 22.178171,44.062476 12.190703,0 22.17817,-19.828002 22.17817,-44.062476 0,-24.234474 -9.987654,-44.0624767 -22.325102,-44.0624767 z"
     id="path22" /><path
     style="fill:#183651;stroke-width:0.18646206"
     d="m 25.821849,80.018519 c -9.253179,0 -16.0092591,-3.084456 -19.2406466,-8.518706 C 3.2030692,65.478021 4.3781531,57.546671 9.8124034,48.881033 15.099908,40.509259 24.059224,32.577909 34.781165,26.262253 46.237394,19.652919 58.574843,15.981108 68.709242,15.981108 c 9.25318,0 16.00926,3.084455 19.240647,8.518705 C 94.999833,36.69033 82.662384,56.518519 59.749926,69.737187 48.44063,76.346708 36.102994,80.018519 25.821849,80.018519 Z M 68.709242,18.918631 c -9.69379,0 -21.590628,3.671811 -32.459315,9.987467 -10.281145,6.021793 -18.800038,13.659279 -23.94061,21.590629 -4.8468949,7.637486 -6.0217924,14.68743 -3.2312012,19.681257 2.6436592,4.55303 8.5187052,7.049944 16.7437332,7.049944 9.69379,0 21.590629,-3.671811 32.459316,-9.987468 C 79.431183,55.049944 91.6217,36.543584 85.452976,25.968575 82.809317,21.415544 76.93427,18.918631 68.709242,18.918631 Z"
     id="path24" /><path
     style="fill:#183651;stroke-width:0.18646206"
     d="m 68.709242,80.018519 c -10.281145,0 -22.61878,-3.818743 -33.928077,-10.281145 C 24.059224,63.568649 15.24684,55.490554 9.8124034,47.118594 4.3779667,38.452956 3.2030692,30.521792 6.5812024,24.499813 9.8125899,18.918631 16.56867,15.981294 25.821849,15.981294 c 10.281145,0 22.618781,3.818743 33.928077,10.281145 22.765526,13.218669 35.249907,33.046858 28.199963,45.237374 -3.084455,5.581369 -9.987467,8.518706 -19.240647,8.518706 z M 25.821849,18.918631 c -8.078095,0 -14.099888,2.496913 -16.7437332,7.049944 -2.9375233,4.993827 -1.7624394,11.896839 3.2312012,19.681257 5.140572,7.931164 13.659278,15.715582 23.94061,21.590628 11.015619,6.315657 22.765525,9.987468 32.459315,9.987468 8.078096,0 14.099888,-2.496914 16.743734,-7.049944 C 91.6217,59.602974 79.431183,41.096801 58.428097,28.906098 47.412478,22.443696 35.662385,18.918631 25.821849,18.918631 Z"
     id="path26" /><circle
     id="circle30"
     r="4.5530305"
     cy="61.21867"
     cx="88.537422"
     style="fill:#ffffff;stroke-width:0.18646206" /><path
     id="path32"
     d="m 88.53743,67.240462 c -3.37813,0 -6.02179,-2.643659 -6.02179,-6.021793 0,-3.378133 2.64366,-6.021792 6.02179,-6.021792 3.37813,0 6.02179,2.643659 6.02179,6.021792 0,3.378134 -2.79059,6.021793 -6.02179,6.021793 z m 0,-9.106248 c -1.76244,0 -3.08445,1.321829 -3.08445,3.084455 0,1.76244 1.32183,3.084456 3.08445,3.084456 1.76244,0 3.08446,-1.32183 3.08446,-3.084456 -1.9e-4,-1.762439 -1.46895,-3.084455 -3.08446,-3.084455 z"
     style="fill:#183651;stroke-width:0.18646206" /><circle
     id="circle34"
     r="4.5530305"
     cy="7.0217938"
     cx="37.718693"
     style="fill:#ffffff;stroke-width:0.18646206" /><path
     id="path36"
     d="m 37.71869,13.043771 c -3.37814,0 -6.0218,-2.643659 -6.0218,-6.021792 C 31.69689,3.643846 34.34055,1 37.71869,1 c 3.37813,0 6.02179,2.643659 6.02179,6.021793 0,3.378133 -2.64366,6.021978 -6.02179,6.021978 z m 0,-9.106247 c -1.76244,0 -3.08446,1.321829 -3.08446,3.084455 0,1.762626 1.32183,3.084455 3.08446,3.084455 1.76262,0 3.08445,-1.321829 3.08445,-3.084455 0,-1.762626 -1.32201,-3.084455 -3.08445,-3.084455 z"
     style="fill:#183651;stroke-width:0.18646206" /><circle
     id="circle38"
     r="4.5530305"
     cy="76.93425"
     cx="17.009281"
     style="fill:#ffffff;stroke-width:0.18646206" /><path
     id="path40"
     d="m 17.00928,82.956044 c -3.37814,0 -6.02179,-2.643659 -6.02179,-6.021792 0,-3.378134 2.64365,-6.021793 6.02179,-6.021793 3.37813,0 6.02179,2.643659 6.02179,6.021793 0,3.378133 -2.7904,6.021792 -6.02179,6.021792 z m 0,-9.106248 c -1.76244,0 -3.08446,1.32183 -3.08446,3.084456 0,1.762439 1.32183,3.084455 3.08446,3.084455 1.76262,0 3.08445,-1.32183 3.08445,-3.084455 0,-1.76244 -1.46876,-3.084456 -3.08445,-3.084456 z"
     style="fill:#183651;stroke-width:0.18646206" /><g
     id="g878"
     transform="translate(0.24551325,-0.81355932)"><path
       id="path4"
       d="m 60.761714,59.441803 v -1.875 h -1.875 v -11.25 h 1.875 v -1.875 h -5.625 v 1.875 h 1.875 v 11.25 h -5.625 v -11.25 h 1.875 v -1.875 h -5.625 v 1.875 h 1.875 v 11.25 h -5.625 v -11.25 h 1.875 v -1.875 h -5.625 v 1.875 h 1.875 v 11.25 h -5.625 v -11.25 h 1.875 v -1.875 h -5.625 v 1.875 h 1.875 v 11.25 h -1.875 v 1.875 h -1.875 v 1.875 h 31.875 v -1.875 z"
       style="fill:#183651;fill-opacity:1;stroke-width:1" /><path
       id="path6"
       d="m 45.761714,31.316803 h 1.875 l 15,9.375 v 1.875 h -31.875 v -1.875 z"
       style="fill:#183651;fill-opacity:1;stroke-width:1" /></g>
	</g>
</svg>