<?xml version="1.0" encoding="UTF-8" standalone="no"?>
<svg
   xmlns:dc="http://purl.org/dc/elements/1.1/"
   xmlns:cc="http://creativecommons.org/ns#"
   xmlns:rdf="http://www.w3.org/1999/02/22-rdf-syntax-ns#"
   xmlns:svg="http://www.w3.org/2000/svg"
   xmlns="http://www.w3.org/2000/svg"
   id="svg14"
   height="80"
   width="80"
   version="1.1"
   viewBox="0 0 80 80">
  <metadata
     id="metadata20">
    <rdf:RDF>
      <cc:Work
         rdf:about="">
        <dc:format>image/svg+xml</dc:format>
        <dc:type
           rdf:resource="http://purl.org/dc/dcmitype/StillImage" />
        <dc:title></dc:title>
      </cc:Work>
    </rdf:RDF>
  </metadata>
  <defs
     id="defs18" />
  <path
     style="fill:#d09b2f;fill-opacity:0.94117647;stroke-width:4.00620985"
     id="path4"
     d="M 72.111772,68.119308 V 21.871317 H 7.8882279 v 46.247991 z m 0,-54.32451 c 2.128634,0 3.975497,0.81326 5.540589,2.439781 C 79.217454,17.8611 80,19.738677 80,21.86731 v 46.247992 c 0,2.128632 -0.782546,4.00621 -2.347639,5.632731 -1.565092,1.626521 -3.411955,2.439781 -5.540589,2.439781 H 7.8882279 c -2.1286334,0 -3.9754963,-0.81326 -5.5405888,-2.439781 C 0.78254631,72.121512 -9.9999999e-8,70.243934 -9.9999999e-8,68.115302 V 13.790792 C -9.9999999e-8,11.662159 0.78254631,9.7845817 2.3476391,8.1580605 3.9127316,6.5315392 5.7595945,5.7182792 7.8882279,5.7182792 H 31.925485 l 8.076519,8.0765188 h 32.113775 z" />
  <g
     id="g847">
    <rect
       style="opacity:1;fill:#d7c5b4;fill-opacity:1;stroke:none;stroke-width:0.99999994;stroke-linecap:round;stroke-linejoin:miter;stroke-miterlimit:4;stroke-dasharray:none;stroke-opacity:1;paint-order:fill markers stroke"
       id="rect4550-4-8"
       width="25.193834"
       height="31.384832"
       x="33.791203"
       y="25.259302"
       ry="0.88983053"
       rx="0.88983047" />
    <path
       d="m 32.366281,44.18699 h -1.465124 v -1.2386 h 1.465124 v -3.715799 h -1.465124 v -1.238599 h 1.465124 v -3.715799 h -1.465124 v -1.238599 h 1.465124 v -3.715799 h -1.465124 v -1.238599 h 1.465124 v -1.22993 c 0,-1.373607 1.309819,-2.485869 2.925849,-2.485869 h 21.984177 c 1.621893,0 2.925852,1.113502 2.925852,2.485869 v 28.469209 c 0,1.373608 -1.30982,2.485871 -2.925852,2.485871 H 35.29213 c -1.62189,0 -2.925849,-1.113502 -2.925849,-2.485871 v -1.229928 h -1.465124 v -1.2386 h 1.465124 v -3.715799 h -1.465124 v -1.2386 h 1.465124 v -3.715797 z m 1.465123,0 v 3.715797 h 1.465123 v 1.2386 h -1.465123 v 3.715799 h 1.465123 v 1.238599 h -1.465123 v 1.244793 c 0,0.68123 0.66663,1.232407 1.465123,1.232407 h 21.97685 c 0.80875,0 1.465123,-0.563563 1.465123,-1.232407 V 26.841642 c 0,-0.68123 -0.66663,-1.232406 -1.465123,-1.232406 h -21.97685 c -0.808749,0 -1.465123,0.563563 -1.465123,1.232406 v 1.244793 h 1.465123 v 1.238599 h -1.465123 v 3.715798 h 1.465123 v 1.238601 h -1.465123 v 3.715797 h 1.465123 v 1.2386 h -1.465123 v 3.715798 h 1.465123 v 1.238601 h -1.465123 z"
       id="path4-8-7-2"
       style="fill:#403022;fill-opacity:1;stroke-width:0.99999994" />
  </g>
  <g
     id="g841">
    <rect
       style="opacity:1;fill:#d7c5b4;fill-opacity:1;stroke:none;stroke-width:0.99999994;stroke-linecap:round;stroke-linejoin:miter;stroke-miterlimit:4;stroke-dasharray:none;stroke-opacity:1;paint-order:fill markers stroke"
       id="rect4550-44-1"
       width="25.193834"
       height="31.384832"
       x="29.254381"
       y="28.96389"
       ry="0.88983053"
       rx="0.88983047" />
    <path
       d="M 27.970917,47.900309 H 26.50579 v -1.238601 h 1.465127 V 42.94591 H 26.50579 v -1.2386 h 1.465127 V 37.991512 H 26.50579 v -1.2386 h 1.465127 V 33.037114 H 26.50579 v -1.238599 h 1.465127 v -1.22993 c 0,-1.373607 1.309813,-2.485869 2.925853,-2.485869 h 21.984166 c 1.621904,0 2.925853,1.113502 2.925853,2.485869 v 28.469208 c 0,1.373607 -1.309813,2.48587 -2.925853,2.48587 H 30.89677 c -1.62189,0 -2.925853,-1.113502 -2.925853,-2.48587 V 57.807864 H 26.50579 v -1.238599 h 1.465127 V 52.853467 H 26.50579 v -1.238601 h 1.465127 V 47.89907 Z m 1.465127,0 v 3.715797 h 1.465114 v 1.2386 h -1.465114 v 3.715798 h 1.465114 v 1.238599 h -1.465114 v 1.244792 c 0,0.68123 0.666621,1.232407 1.465114,1.232407 h 21.976853 c 0.808744,0 1.465127,-0.563563 1.465127,-1.232407 V 30.55496 c 0,-0.68123 -0.666634,-1.232406 -1.465127,-1.232406 H 30.901158 c -0.808745,0 -1.465114,0.563563 -1.465114,1.232406 v 1.244793 h 1.465114 v 1.2386 h -1.465114 v 3.715798 h 1.465114 v 1.238601 h -1.465114 v 3.715797 h 1.465114 v 1.2386 h -1.465114 v 3.715798 h 1.465114 v 1.238601 h -1.465114 z"
       id="path4-8-7-5-5"
       style="fill:#403022;fill-opacity:1;stroke:none;stroke-width:0.99999994;stroke-opacity:1" />
  </g>
  <g
     id="g835">
    <rect
       style="opacity:1;fill:#d7c5b4;fill-opacity:1;stroke:none;stroke-width:0.99999994;stroke-linecap:round;stroke-linejoin:miter;stroke-miterlimit:4;stroke-dasharray:none;stroke-opacity:1;paint-order:fill markers stroke"
       id="rect4550-2"
       width="25.193834"
       height="31.384832"
       x="24.791445"
       y="32.963043"
       ry="0.88983053"
       rx="0.88983047" />
    <path
       d="m 23.575538,51.617346 h -1.465123 v -1.2386 h 1.465123 v -3.715798 h -1.465123 v -1.2386 h 1.465123 V 41.708549 H 22.110415 V 40.46995 h 1.465123 v -3.715799 h -1.465123 v -1.238599 h 1.465123 v -1.22993 c 0,-1.373607 1.30982,-2.485868 2.92585,-2.485868 h 21.984177 c 1.621891,0 2.925851,1.1135 2.925851,2.485868 v 28.469211 c 0,1.373607 -1.309821,2.485869 -2.925851,2.485869 H 26.501388 c -1.621891,0 -2.92585,-1.113501 -2.92585,-2.485869 v -1.22993 h -1.465123 v -1.238599 h 1.465123 v -3.715799 h -1.465123 v -1.238599 h 1.465123 v -3.715799 z m 1.465123,0 v 3.715798 h 1.465123 v 1.2386 h -1.465123 v 3.715798 h 1.465123 v 1.2386 h -1.465123 v 1.244793 c 0,0.681229 0.66663,1.232406 1.465123,1.232406 h 21.976851 c 0.808748,0 1.465123,-0.563563 1.465123,-1.232406 V 34.271998 c 0,-0.68123 -0.666632,-1.232406 -1.465123,-1.232406 H 26.505784 c -0.808748,0 -1.465123,0.563563 -1.465123,1.232406 v 1.244793 h 1.465123 v 1.238599 h -1.465123 v 3.715799 h 1.465123 v 1.238599 h -1.465123 v 3.715799 h 1.465123 v 1.2386 h -1.465123 v 3.715798 h 1.465123 v 1.238599 h -1.465123 z"
       id="path4-8-0"
       style="fill:#403022;fill-opacity:1;stroke-width:0.99999994" />
    <rect
       ry="0.53931874"
       y="39.231354"
       x="29.944504"
       height="2.0033419"
       width="16.128357"
       id="rect828"
       style="opacity:1;fill:#5f4732;fill-opacity:1;stroke:none;stroke-width:1;stroke-linecap:round;stroke-linejoin:miter;stroke-miterlimit:4;stroke-dasharray:none;stroke-opacity:1;paint-order:fill markers stroke" />
    <rect
       ry="0.44943228"
       y="44.186989"
       x="31.409632"
       height="2.0029831"
       width="13.186107"
       id="rect830"
       style="opacity:1;fill:#5f4732;fill-opacity:1;stroke:none;stroke-width:1;stroke-linecap:round;stroke-linejoin:miter;stroke-miterlimit:4;stroke-dasharray:none;stroke-opacity:1;paint-order:fill markers stroke" />
  </g>
</svg>
