<?xml version="1.0" encoding="UTF-8" standalone="no"?>
<svg
   xmlns="http://www.w3.org/2000/svg"
   version="1.1"
   height="96"
   width="96">
  <g
     transform="translate(0,-610)"
     label="Layer 1"
     id="imagebot_85">
    <title
       id="title3"
       label="Layer 1" />
  </g>
  <path
     id="imagebot_84"
     d="m 3.2507061,67.114144 c 28.8291099,0 57.6582209,0 86.4873309,0 0.164415,1.744419 0.24019,3.400199 -1.996867,2.743145 -28.163488,0 -56.326976,0 -84.4904639,0 0,-0.914382 0,-1.828763 0,-2.743145 z"
     style="fill:#d7d8d6;stroke:#160808;stroke-width:0.5;stroke-miterlimit:4;stroke-dasharray:none;stroke-opacity:1" />
  <path
     id="imagebot_83"
     d="m 0.66543767,1.7348158 c 31.14706233,0 62.29412433,0 93.44118633,0 0,21.6737792 0,43.3475602 0,65.0213392 -31.147062,0 -62.294124,0 -93.44118633,0 0,-21.673779 0,-43.34756 0,-65.0213392 z"
     style="fill:#f3b674;stroke:#160808;stroke-width:0.5;stroke-miterlimit:4;stroke-dasharray:none;stroke-opacity:1" />
  <path
     id="imagebot_81"
     d="m 4.5511883,9.1837733 c 28.7357957,0 57.4715907,0 86.2073857,0 0,18.0003957 0,36.0007907 0,54.0011857 -28.735795,0 -57.47159,0 -86.2073857,0 0,-18.000395 0,-36.00079 0,-54.0011857 z"
     style="fill:#333333;stroke:#160808;stroke-width:0.5;stroke-miterlimit:4;stroke-dasharray:none;stroke-opacity:1" />
  <path
     id="imagebot_80"
     d="m 2.8211263,3.8277816 c 29.6149547,0 59.2299097,0 88.8448637,0 0,19.8068594 0,39.6137164 0,59.4205764 -29.614954,0 -59.229909,0 -88.8448637,0 0,-19.80686 0,-39.613717 0,-59.4205764 z"
     style="fill:#019e01;stroke:#160808;stroke-width:0.49999997;stroke-linecap:round;stroke-linejoin:round;stroke-miterlimit:4;stroke-dasharray:none;stroke-opacity:1" />
  <path
     id="imagebot_79"
     d="m 94.883555,67.663113 c -31.468843,0 -62.937687,0 -94.40653033,0 -0.4892548,-1.721128 -0.70819336,-3.21526 1.60518423,-2.582908 31.1206121,0 62.2412241,0 93.3618361,0 -0.18683,0.860969 -0.37366,1.721939 -0.56049,2.582908 z"
     style="fill:#83653f;stroke:#160808;stroke-width:0.5;stroke-miterlimit:4;stroke-dasharray:none;stroke-opacity:1" />
  <path
     id="imagebot_77"
     d="m 11.648331,56.737388 c 3.35977,0 6.71953,0 10.07929,0 0,1.667477 0,3.334954 0,5.002431 -3.35976,0 -6.71952,0 -10.07929,0 0,-1.667477 0,-3.334954 0,-5.002431 z"
     style="fill:#ddbfa0;stroke:#160808;stroke-width:0.5;stroke-miterlimit:4;stroke-dasharray:none;stroke-opacity:1" />
  <path
     id="imagebot_76"
     d="m 11.458641,56.549105 c 3.35977,0 6.71953,0 10.07929,0 0,1.667477 0,3.334955 0,5.002432 -3.35976,0 -6.71952,0 -10.07929,0 0,-1.667477 0,-3.334955 0,-5.002432 z"
     style="fill:#594531;fill-opacity:1;stroke:#160808;stroke-width:0.5;stroke-linecap:round;stroke-linejoin:round;stroke-miterlimit:4;stroke-dasharray:none;stroke-opacity:1" />
  <path
     id="imagebot_75"
     d="m 15.955561,56.507442 c 2.28609,-0.723293 1.63789,1.487705 1.69309,2.995301 1.00595,1.944858 -2.42005,2.221977 -1.69309,0.27499 0,-1.090097 0,-2.180194 0,-3.270291 z"
     style="fill:#eb8b2d;stroke:#160808;stroke-width:0.5;stroke-miterlimit:4;stroke-dasharray:none;stroke-opacity:1" />
  <path
     id="imagebot_74"
     d="m 15.955561,61.025775 c 2.28609,0.723293 1.63789,-1.487705 1.69309,-2.995301 1.00595,-1.944858 -2.42005,-2.221977 -1.69309,-0.27499 0,1.090097 0,2.180194 0,3.270291 z"
     style="fill-opacity:0;stroke:#160808;stroke-width:0.5;stroke-linecap:round;stroke-linejoin:round;stroke-miterlimit:4;stroke-dasharray:none;stroke-opacity:1" />
  <path
     d="M 95.05597,62.225079 93.747924,59.523226 82.70464,36.65397 h -8.405762 l 0.01085,-0.03217 -1.222273,-2.755461 -0.385973,-0.85773 -0.01085,0.01074 v -0.01074 h -1.425985 v -0.814845 c 0.05358,-0.03217 0.09652,-0.05361 0.150106,-0.08577 0.225152,-0.128659 0.43959,-0.278762 0.643302,-0.450308 1.404534,-1.104329 2.541023,-2.905564 3.195041,-4.074223 0.396709,-0.71835 0.600422,-1.51175 0.600422,-2.326596 v -1.329483 c 0.428864,0.04289 1.029275,0.02144 1.361641,-0.364536 0.385984,-0.450308 0.750517,-2.701853 0.225153,-3.334428 -0.310926,-0.364536 -0.836289,-0.246598 -1.222262,-0.07505 -0.08578,0.04289 -0.171546,0.08577 -0.246604,0.117938 0.04295,-0.836288 0.09652,-1.865566 0.13939,-2.884121 0.06431,-1.747627 0.09652,-3.452367 0.01084,-4.009892 0,0 1.29731,-1.243711 1.565354,-2.487421 0,0 -1.468866,0.12866 -2.680413,-0.46103 -0.11795,-0.05361 -0.235889,-0.117942 -0.343103,-0.192994 C 74.363308,10.042864 73.891562,9.8820393 73.323318,9.7426579 70.053219,8.9706999 63.277144,9.1315245 62.816113,10.235853 c 0,0 -1.876291,-0.8684524 -3.077112,1.125772 -0.321652,0.536082 -0.396699,2.262266 -0.364544,4.192161 0,0.139381 0,0.278763 0.01085,0.418144 0,0.192989 0.01084,0.385979 0.02147,0.578968 0,0.0965 0.01084,0.192989 0.01084,0.278762 0.04284,1.115051 0.107257,2.219379 0.171546,3.141441 0,0.05361 0.01085,0.107213 0.01085,0.160824 0,0.04289 0,0.08577 0.01084,0.117938 -0.203701,-0.107213 -0.482471,-0.225154 -0.761231,-0.257319 h -0.02147 c -0.117939,-0.01074 -0.235878,0 -0.343092,0.03217 -0.107257,0.03217 -0.214438,0.0965 -0.30021,0.203711 -0.160821,0.192988 -0.235868,0.52536 -0.257319,0.922061 -0.05358,0.900617 0.214437,2.101441 0.482482,2.412367 0.07505,0.08577 0.16082,0.160825 0.257319,0.203712 0.332366,0.182268 0.771957,0.182268 1.104323,0.150103 v 1.329483 c 0,0.268041 0.02147,0.52536 0.06431,0.793402 0.08578,0.536081 0.268044,1.061441 0.536078,1.543915 0.407424,0.750515 1.018561,1.736906 1.769077,2.648245 0.289485,0.353815 0.600411,0.686185 0.922062,0.997113 0.396699,0.375257 0.825564,0.707628 1.275869,0.954225 v 0.836288 H 63.12745 l -0.06431,0.150103 -0.310926,0.707628 -0.06431,0.139382 -1.115059,2.519584 -0.04295,0.0965 0.01084,0.03217 h -8.395037 v 0.08577 l -1.050727,0.954225 -0.225152,0.203711 -10.603693,9.628032 -3.795462,-2.744739 0.418139,-0.793402 -1.972778,-1.468864 -1.383094,-1.029278 -1.082882,1.458144 -0.986395,-0.729072 -0.632577,-0.471752 -0.536078,-0.396701 -5.307209,-3.956284 -0.160831,-1.951339 -0.04284,-0.557524 -1.125774,-0.964948 -3.377313,-2.905564 c 0,0 -0.09652,0.0965 -0.214427,0.257319 -0.117939,0.150103 -0.257318,0.332371 -0.375258,0.536082 L 19.769377,29.630661 7.298655,9.9552905 7.052051,10.137559 6.5481388,10.502095 19.458451,30.756434 l 1.050625,2.370128 -1.588654,1.603067 -0.08578,0.107213 -0.107256,1.56536 3.45237,2.61608 1.10932,1.065326 c 1.710842,1.694451 6.959365,8.341655 5.132525,5.083352 l 0.589685,0.568246 1.350927,1.297319 -0.557519,0.739793 -0.385984,0.514639 -0.857729,1.147215 4.535252,3.484533 0.332367,-0.632577 7.162059,5.253603 11.236281,-8.877517 1.275869,-1.007834 V 95.792357 H 64.38197 v -2.131426 c 0,-1.940616 1.57608,-3.505975 3.505977,-3.505975 h 0.02147 v 0 c 0.847015,0 1.618972,0.300206 2.219383,0.804122 0.782682,0.643299 1.27588,1.618969 1.27588,2.701853 v 2.131426 h 11.27916 v -9.818843 l 2.73402,-5.350098 3.881224,-7.472982 2.626807,1.147215 2.358762,-5.210716 -1.844124,-0.482474 z m -12.35133,-8.202054 3.806177,8.545146 -0.611125,1.844122 -0.396699,1.200824 -0.246604,0.739793 -0.09652,0.300205 -0.654018,-0.171546 -0.85773,1.96206 -0.814848,1.876287 1.726185,0.750515 -1.865565,4.352985 V 54.023025 Z"
     id="path40"
     style="opacity:0.45;fill:#173151;stroke-width:1.00000012" />
  <path
     d="m 61.840335,30.220988 h 9.585143 v 3.784736 h -9.681641 z"
     id="path42"
     style="fill:#8aa7b6;stroke-width:1.00000012" />
  <path
     d="M 6.4943493,8.7597291 7.5068261,8.28291 23.541956,33.386407 22.585474,34.179856 Z"
     id="path44"
     style="fill:#803300;stroke-width:1.00000262" />
  <path
     d="M 51.847757,33.866345 H 81.428761 V 75.337642 H 51.847757 Z"
     id="path46"
     style="fill:#d2e8f4;stroke-width:1.00000012" />
  <path
     d="M 51.847757,33.866345 H 66.697229 V 75.337642 H 51.847757 Z"
     id="path48"
     style="fill:#b9dbeb;stroke-width:1.00000012" />
  <path
     d="m 67.587124,38.88407 1.393819,-1.329482 -2.337321,-1.608246 -2.348037,1.608246 1.393819,1.329482 -1.887016,27.715436 2.841234,2.927007 2.830519,-2.927007 z"
     id="path50"
     style="fill:#e87f6a;stroke-width:1.00000012" />
  <path
     d="M 81.428761,75.337643 V 95.792349 H 70.149599 v -4.919052 c 0,-0.964948 -0.396699,-1.844121 -1.029276,-2.476698 -0.632577,-0.632577 -1.501032,-1.018555 -2.465976,-1.029278 h -0.02147 c -1.940623,0 -3.505977,1.576081 -3.505977,3.505976 v 4.919052 H 51.847768 V 75.337643 Z"
     id="path52"
     style="fill:#24506d;stroke-width:1.00000012" />
  <path
     d="m 66.654347,75.337643 v 12.029678 h -0.02147 c -1.940623,0 -3.505977,1.576081 -3.505977,3.505976 v 4.919052 H 51.847768 V 75.337643 Z"
     id="path54"
     style="fill:#1f4964;stroke-width:1.00000012" />
  <path
     d="m 51.847757,72.271256 h 29.581004 v 3.066388 H 51.847757 Z"
     id="path56"
     style="fill:#112f3f;stroke-width:1.00000012" />
  <path
     d="m 68.605685,71.874554 h -3.934842 c -0.471756,0 -0.857729,0.385979 -0.857729,0.85773 v 2.133607 c 0,0.471752 0.385973,0.85773 0.857729,0.85773 h 3.934842 c 0.471757,0 0.85773,-0.385978 0.85773,-0.85773 v -2.133607 c 0,-0.471751 -0.385973,-0.85773 -0.85773,-0.85773 z"
     id="path58"
     style="fill:#aca9ae;stroke-width:1.00000012" />
  <g
     transform="matrix(0.10721639,0,0,0.10721639,-42.13812,-0.60372341)"
     style="stroke-width:9.32693386"
     id="g64">
    <path
       d="m 1075.9,677.79999 h 9.2 v 34.8 h -9.2 z"
       id="path60"
       style="fill:#24506d;stroke-width:9.32693386" />
    <path
       d="m 1129.9,677.79999 h 9.2 v 34.8 h -9.2 z"
       id="path62"
       style="fill:#24506d;stroke-width:9.32693386" />
  </g>
  <g
     transform="matrix(0.10721639,0,0,0.10721639,-42.13812,-0.60372341)"
     style="stroke-width:9.32693386"
     id="g74">
    <g
       style="stroke-width:9.32693386"
       id="g68">
      <path
         d="m 890,677.79999 h 9.2 v 34.8 H 890 Z"
         id="path66"
         style="fill:#1f4964;stroke-width:9.32693386" />
    </g>
    <g
       style="stroke-width:9.32693386"
       id="g72">
      <path
         d="m 944,677.79999 h 9.2 v 34.8 H 944 Z"
         id="path70"
         style="fill:#1f4964;stroke-width:9.32693386" />
    </g>
  </g>
  <path
     d="M 32.386516,40.263758 24.22629,33.243312 24.18772,30.725598 19.976834,26.550589 c 0,0 -1.014629,0.982213 -0.943645,1.503086 0.07028,0.531572 0.07028,0.531572 0.07028,0.531572 l -2.161485,2.471061 -0.216394,1.554035 3.261098,2.85096 1.436052,0.519778 7.490506,8.29552 z"
     id="path76"
     style="fill:#ffd391;stroke-width:1.00000012" />
  <path
     d="M 51.944256,33.866345 39.968185,44.738085 33.149228,39.806131 28.335205,46.710867 39.335618,54.77354 52.298073,44.523652 Z"
     id="path78"
     style="fill:#d2e8f4;stroke-width:1.00000012" />
  <path
     d="m 84.580931,65.30219 -4.492372,10.485762 -2.208656,1.222268 3.302264,6.67958 2.969899,-5.843293 5.585969,-10.732363 z"
     id="path80"
     style="fill:#ffd391;stroke-width:1.00000012" />
  <path
     d="m 81.428761,33.866345 12.351329,25.581828 -3.623916,8.920404 -6.840397,-2.787626 1.919171,-5.789685 -4.288659,-9.617308 z"
     id="path82"
     style="fill:#b9dbeb;stroke-width:1.00000012" />
  <path
     d="m 30.262192,49.261409 -4.280639,-3.79297 6.471311,-7.532329 3.173077,2.726564 z"
     id="path84"
     style="fill:#e3eff5;stroke-width:1.00000012" />
  <path
     d="m 93.029574,66.299302 -2.358751,5.221438 -9.113398,-3.967005 1.672579,-3.838346 z"
     id="path86"
     style="fill:#bbe0f3;stroke-width:1.00000012" />
  <g
     transform="matrix(0.10721639,0,0,0.10721639,-42.13812,-0.60372341)"
     style="stroke-width:9.32693386"
     id="g92">
    <path
       d="m 939.6,170 c 0,0 -10.9,-7.6 -15.8,-1.8 -5,5.9 -1.5,26.9 2.1,31.1 5,5.9 17,2.6 17,2.6 z"
       id="path88"
       style="fill:#f4bf88;stroke-width:9.32693386" />
    <path
       d="m 1087.6,170 c 0,0 10.9,-7.6 15.8,-1.8 5,5.9 1.5,26.9 -2.1,31.1 -5,5.9 -17,2.6 -17,2.6 z"
       id="path90"
       style="fill:#f4bf88;stroke-width:9.32693386" />
  </g>
  <path
     d="m 63.041157,28.827174 h 6.958336 v 7.119169 h -6.958336 z"
     id="path94"
     style="fill:#f4bf88;stroke-width:1.00000012" />
  <path
     d="M 68.337641,29.867174 H 64.72445 c -2.498142,0 -4.653192,-3.2701 -5.650301,-5.082057 -0.396699,-0.71835 -0.600411,-1.511752 -0.600411,-2.326596 v -9.863908 c 0,-2.133605 1.726185,-3.8597891 3.859784,-3.8597891 h 8.384321 c 2.13361,0 3.859795,1.7261841 3.859795,3.8597891 v 9.863908 c 0,0.814844 -0.203712,1.618967 -0.600411,2.326596 -0.986395,1.822678 -3.141445,5.082057 -5.639586,5.082057 z"
     id="path96"
     style="fill:#ffd391;stroke-width:1.00000012" />
  <path
     d="m 63.191262,17.065537 c -0.364543,0 -0.654028,0.300206 -0.654028,0.654019 v 0.84701 c 0,0.364535 0.300211,0.65402 0.654028,0.65402 0.353807,0 0.654018,-0.300206 0.654018,-0.65402 v -0.84701 c 0,-0.364535 -0.289485,-0.654019 -0.654018,-0.654019 z"
     id="path98"
     style="fill:#2c2d33;stroke-width:1.00000012" />
  <path
     d="m 69.881565,17.065537 c -0.364543,0 -0.654028,0.300206 -0.654028,0.654019 v 0.84701 c 0,0.364535 0.30021,0.65402 0.654028,0.65402 0.364532,0 0.654017,-0.300206 0.654017,-0.65402 v -0.84701 c 0,-0.364535 -0.30021,-0.654019 -0.654017,-0.654019 z"
     id="path100"
     style="fill:#2c2d33;stroke-width:1.00000012" />
  <path
     d="m 58.484453,19.44574 c 0,0 0.514649,-4.299376 1.597531,-5.007005 1.082882,-0.707628 0.729065,-3.388038 0.729065,-3.388038 0,0 3.988459,2.798348 11.943905,2.68041 0,0 0.611137,3.441646 1.85485,5.500201 0,0 0.461031,-7.355045 0.235878,-8.652362 0,0 1.297321,-1.2437103 1.565354,-2.4874205 0,0 -1.769066,0.1501031 -3.023505,-0.6540199 -2.047826,-1.2758749 -11.311328,-1.2865966 -11.847406,0.010726 0,0 -1.876291,-0.8684528 -3.077113,1.125772 -0.857729,1.4152563 0.02147,10.8717414 0.02147,10.8717414 z"
     id="path102"
     style="fill:#76262d;stroke-width:1.00000012" />
  <path
     d="m 64.102599,16.175641 h -3.913401 c -0.578971,0 -1.050717,0.471752 -1.050717,1.05072 v 2.02639 c 0,0.578969 0.471746,1.050721 1.050717,1.050721 h 3.913401 c 0.57897,0 1.050716,-0.471752 1.050716,-1.050721 v -2.02639 c 0,-0.578968 -0.471746,-1.05072 -1.050716,-1.05072 z"
     id="path104"
     style="opacity:0.68999999;fill:#ffffff;stroke-width:1.00000012" />
  <path
     d="m 61.422185,16.175641 h -0.482471 l 2.230097,4.127831 h 0.375258 z"
     id="path106"
     style="fill:#ffffff;stroke-width:1.00000012" />
  <path
     d="m 61.979715,20.303472 h 0.836289 l -2.240823,-4.127831 h -0.396709 c -0.117928,0 -0.235868,0.02144 -0.343092,0.06433 z"
     id="path108"
     style="fill:#ffffff;stroke-width:1.00000012" />
  <path
     d="m 71.05022,16.175641 h -0.471756 l 2.219382,4.127831 h 0.385984 z"
     id="path110"
     style="fill:#ffffff;stroke-width:1.00000012" />
  <path
     d="m 71.607739,20.303472 h 0.836289 l -2.230097,-4.127831 h -0.396698 c -0.11794,0 -0.235879,0.02144 -0.343092,0.06433 z"
     id="path112"
     style="fill:#ffffff;stroke-width:1.00000012" />
  <path
     d="m 72.851453,16.175641 h -3.913402 c -0.578959,0 -1.050716,0.471752 -1.050716,1.05072 v 2.02639 c 0,0.578969 0.471757,1.050721 1.050716,1.050721 h 3.913402 c 0.57897,0 1.050727,-0.471752 1.050727,-1.050721 v -2.02639 c 0,-0.578968 -0.471757,-1.05072 -1.050727,-1.05072 z"
     id="path114"
     style="opacity:0.68999999;fill:#ffffff;stroke-width:1.00000012" />
  <path
     d="m 73.215985,15.757497 c -0.128654,-0.03217 -0.257319,-0.05361 -0.396699,-0.05361 H 69.03455 c -0.87917,0 -1.59752,0.71835 -1.59752,1.597525 h -1.790518 c 0,-0.879175 -0.71835,-1.597525 -1.59752,-1.597525 h -3.784736 c -0.321652,0 -0.621862,0.0965 -0.868456,0.25732 -0.07505,0.05361 -0.150105,0.107214 -0.214438,0.160825 v 0 c -0.321651,0.289484 -0.525352,0.71835 -0.525352,1.17938 v 1.940616 c 0,0.268042 0.06431,0.514639 0.182261,0.729072 0.01085,0.01074 0.01085,0.03217 0.02147,0.04288 0.278759,0.493196 0.804123,0.825566 1.404533,0.825566 h 3.784737 c 0.889896,0 1.597531,-0.71835 1.597531,-1.597524 v -1.050721 h 1.790507 v 1.050721 c 0,0.889896 0.71835,1.597524 1.597531,1.597524 h 3.784736 c 0.600411,0 1.125774,-0.33237 1.404534,-0.825566 0.128665,-0.225154 0.203712,-0.493195 0.203712,-0.782679 v -1.940617 c 0,-0.729071 -0.514638,-1.361648 -1.211547,-1.533194 z m -8.20205,3.495254 c 0,0.536082 -0.43959,0.97567 -0.975669,0.97567 H 60.25353 c -0.257319,0 -0.493197,-0.0965 -0.664743,-0.268042 -0.192987,-0.171546 -0.310926,-0.428866 -0.310926,-0.707628 v -1.940617 c 0,-0.182267 0.05357,-0.343092 0.128654,-0.482474 0.117939,-0.203711 0.300211,-0.353813 0.514638,-0.428865 0.107257,-0.03217 0.214438,-0.05361 0.321651,-0.05361 h 3.784737 c 0.536089,0 0.975669,0.439587 0.975669,0.97567 v 1.929894 z m 8.78102,0 c 0,0.428865 -0.289485,0.804122 -0.675458,0.932783 -0.09652,0.03217 -0.192986,0.04289 -0.300211,0.04289 H 69.03455 c -0.536078,0 -0.975669,-0.439587 -0.975669,-0.97567 V 17.31214 c 0,-0.536082 0.439591,-0.975669 0.975669,-0.975669 h 3.784736 c 0.246605,0 0.471757,0.08577 0.632577,0.235876 0.203713,0.182267 0.332378,0.439587 0.332378,0.739793 v 1.940616 z"
     id="path116"
     style="fill:#2c2d33;stroke-width:1.00000012" />
  <path
     d="m 61.840335,30.220988 4.803287,5.725354 -3.774011,3.291544 -2.637522,-5.392986 z"
     id="path118"
     style="fill:#e3eff5;stroke-width:1.00000012" />
  <path
     d="m 71.436193,30.220988 -4.792571,5.725354 3.763296,3.291544 2.637521,-5.392986 z"
     id="path120"
     style="fill:#e3eff5;stroke-width:1.00000012" />
  <g
     transform="matrix(0.10721639,0,0,0.10721639,-42.13812,-0.60372341)"
     style="stroke-width:9.32693386"
     id="g126">
    <path
       d="m 1012.1,223.89999 -26.69998,8.5 -4.60003,10.30001 9.60003,-1.7 2.5,-3.5 18.69998,-5.60001 z"
       id="path122"
       style="fill:#76262d;stroke-width:9.32693386" />
    <path
       d="m 1015.1,223.89999 26.7,8.5 4.5,10.30001 -9.6,-1.7 -2.5,-3.5 -18.6,-5.60001 z"
       id="path124"
       style="fill:#76262d;stroke-width:9.32693386" />
  </g>
  <path
     d="m 68.627126,25.06388 h -4.181435 c -0.171546,0 -0.27876,0.203711 -0.171546,0.33237 0.364532,0.450309 1.243713,0.771958 2.262263,0.771958 1.029276,0 1.897731,-0.321649 2.262264,-0.771958 0.107257,-0.139382 0,-0.33237 -0.171546,-0.33237 z"
     id="path128"
     style="fill:#f15b42;stroke-width:1.00000012" />
  <path
     d="m 60.596622,15.457291 0.57897,-0.557525 3.591739,-0.557526 -0.150094,0.836288 -3.312991,0.171547 -0.750516,0.321649 z"
     id="path130"
     style="fill:#76262d;stroke-width:1.00000012" />
  <path
     d="m 72.358255,15.457291 -0.57897,-0.557525 -3.591739,-0.557526 0.150095,0.836288 3.31299,0.171547 0.750516,0.321649 z"
     id="path132"
     style="fill:#76262d;stroke-width:1.00000012" />
  <path
     d="m 77.751238,76.559911 3.570309,7.355042 -0.643292,1.565363 -3.538143,-8.845353 z"
     id="path134"
     style="fill:#1f4964;stroke-width:1.00000012" />
  <path
     d="m 70.953722,41.167781 h 0.900621 v 4.974841 h -0.900621 z"
     id="path136"
     style="fill:#112f3f;stroke-width:1.00000012" />
  <path
     d="m 72.251042,41.167781 h 0.900622 v 4.974841 h -0.900622 z"
     id="path138"
     style="fill:#112f3f;stroke-width:1.00000012" />
  <path
     d="m 70.149599,43.623036 h 7.280009 v 8.931125 h -7.280009 z"
     id="path140"
     style="fill:#b9dbeb;stroke-width:1.00000012" />
</svg>
