<?xml version="1.0" encoding="UTF-8" standalone="no"?>
<svg
   xmlns:dc="http://purl.org/dc/elements/1.1/"
   xmlns:cc="http://creativecommons.org/ns#"
   xmlns:rdf="http://www.w3.org/1999/02/22-rdf-syntax-ns#"
   xmlns:svg="http://www.w3.org/2000/svg"
   xmlns="http://www.w3.org/2000/svg"
   viewBox="0 0 96 96"
   id="svg5876"
   version="1.1"
   width="96"
   height="96">
  <defs
     id="defs5878" />
  <metadata
     id="metadata5881">
    <rdf:RDF>
      <cc:Work
         rdf:about="">
        <dc:format>image/svg+xml</dc:format>
        <dc:type
           rdf:resource="http://purl.org/dc/dcmitype/StillImage" />
        <dc:title></dc:title>
      </cc:Work>
    </rdf:RDF>
  </metadata>
  <g
     id="g911">
    <path
       style="color:#000000;display:inline;overflow:visible;visibility:visible;fill:#008000;stroke:#000000;stroke-width:1;stroke-linecap:round;stroke-linejoin:round;stroke-miterlimit:4;stroke-dasharray:none;stroke-dashoffset:1.5;stroke-opacity:1;marker:none;enable-background:accumulate"
       d="m 48.872664,64.019038 c -0.482024,-8.185775 0.361397,-16.385817 1.475991,-24.490382 4.193545,-0.97562 8.330836,-2.312297 12.680622,-2.288154 5.596363,-0.465313 11.190401,-0.848318 16.80602,-0.435682 4.72853,-0.925138 8.559372,1.391549 8.800932,6.358544 1.90299,6.369519 4.28142,12.644658 5.500402,19.187571 -0.158337,2.844554 -1.574564,8.521591 -2.305159,11.259694"
       id="path3381" />
    <path
       style="color:#000000;display:inline;overflow:visible;visibility:visible;fill:none;stroke:#000000;stroke-width:1;stroke-linecap:round;stroke-linejoin:round;stroke-miterlimit:4;stroke-dasharray:none;stroke-dashoffset:1.5;stroke-opacity:1;marker:none;enable-background:accumulate"
       d="m 80.360638,49.345221 c 0.738001,4.007837 1.476002,8.015673 2.214003,12.024607"
       id="path3383" />
    <path
       style="color:#000000;display:inline;overflow:visible;visibility:visible;fill:none;stroke:#000000;stroke-width:1;stroke-linecap:round;stroke-linejoin:round;stroke-miterlimit:4;stroke-dasharray:none;stroke-dashoffset:1.5;stroke-opacity:1;marker:none;enable-background:accumulate"
       d="m 55.022654,51.308534 c 0.246004,3.107939 0.491997,6.215878 0.738001,9.324914"
       id="path3385" />
    <path
       style="color:#000000;display:inline;overflow:visible;visibility:visible;fill:#ffcb9f;fill-opacity:1;fill-rule:nonzero;stroke:#000000;stroke-width:1;stroke-linecap:round;stroke-linejoin:round;stroke-miterlimit:4;stroke-dasharray:none;stroke-dashoffset:1.5;stroke-opacity:1;marker:none;enable-background:accumulate"
       d="m 72.119652,29.34445 c -0.205001,3.149642 -0.410003,6.299283 -0.615004,9.447827 -4.010576,2.73481 -9.116994,5.382923 -11.561991,-0.981108"
       id="path3377" />
    <path
       style="color:#000000;display:inline;overflow:visible;visibility:visible;fill:#ffcb9f;fill-opacity:1;fill-rule:nonzero;stroke:#000000;stroke-width:1;stroke-linecap:round;stroke-linejoin:round;stroke-miterlimit:4;stroke-dasharray:none;stroke-dashoffset:1.5;stroke-opacity:1;marker:none;enable-background:accumulate"
       d="m 60.214402,10.344541 c -7.172299,3.936503 -7.963811,13.486391 -6.011293,20.593386 0.759144,5.11515 5.75165,8.637919 10.629115,6.065529 5.755523,-1.06561 6.120837,-7.558042 9.747413,-10.112873 1.101658,-1.886492 0.431421,-4.326092 0.782207,-6.447436 -0.03994,-1.609939 0.682132,-3.453631 -0.808671,-4.619108 -1.193363,-1.3696 -2.10334,-3.234144 -3.473571,-4.294267 -3.621726,-0.395077 -7.243463,-0.790154 -10.8652,-1.185231 z"
       id="path3213" />
    <path
       style="fill:#000000;stroke:#000000;stroke-width:1;stroke-linecap:round;stroke-linejoin:round;stroke-miterlimit:4;stroke-dasharray:none;stroke-dashoffset:1.5"
       d="m 57.192122,19.995393 c -0.01602,0.953672 -1.179066,0.186564 -0.59237,-0.38081 0.271646,-0.290821 0.623344,0.06585 0.59237,0.38081 z"
       id="path3360-4-7" />
    <path
       style="fill:#000000;stroke:#000000;stroke-width:1;stroke-linecap:round;stroke-linejoin:round;stroke-miterlimit:4;stroke-dasharray:none;stroke-dashoffset:1.5"
       d="m 63.323196,19.820901 c -0.01602,0.953672 -1.179055,0.186564 -0.592358,-0.380811 0.271645,-0.29082 0.623343,0.06585 0.592358,0.380811 z"
       id="path3376-0-5" />
    <path
       style="color:#000000;display:inline;overflow:visible;visibility:visible;fill:#ffffff;fill-opacity:1;fill-rule:nonzero;stroke:#000000;stroke-width:1;stroke-linecap:round;stroke-linejoin:round;stroke-miterlimit:4;stroke-dasharray:none;stroke-dashoffset:1.5;stroke-opacity:1;marker:none;enable-background:accumulate"
       d="m 56.37566,31.553589 c 2.410117,-0.472995 9.058051,-1.692246 4.328434,1.477149 -1.537708,0.683702 -3.639347,0.153641 -4.328434,-1.477149 z"
       id="path3236" />
    <path
       style="color:#000000;display:inline;overflow:visible;visibility:visible;fill:none;stroke:#000000;stroke-width:1;stroke-linecap:round;stroke-linejoin:round;stroke-miterlimit:4;stroke-dasharray:none;stroke-dashoffset:1.5;stroke-opacity:1;marker:none;enable-background:accumulate"
       d="m 58.474928,22.490962 c -0.545398,2.524103 -4.532339,5.109662 0.869742,4.859447"
       id="path3255" />
    <path
       style="color:#000000;display:inline;overflow:visible;visibility:visible;fill:#432a16;fill-opacity:1;fill-rule:nonzero;stroke:#000000;stroke-width:1;stroke-linecap:round;stroke-linejoin:round;stroke-miterlimit:4;stroke-dasharray:none;stroke-dashoffset:1.5;stroke-opacity:1;marker:none;enable-background:accumulate"
       d="m 53.915653,17.811495 c 1.36954,-3.80481 6.449779,-5.52998 10.146126,-4.528021 2.480952,0.73199 4.961905,1.46398 7.442869,2.19597 0.938547,0.173395 -1.855953,7.912513 2.081395,6.2488 3.026877,1.521047 -0.126354,7.382452 2.943105,3.08599 C 76.746274,20.071116 78.529076,13.770736 73.767169,10.616705 69.03154,6.4003558 62.360093,7.1367353 56.604218,8.1266226 52.228614,8.6994842 51.465981,14.885731 53.915653,17.811495 Z"
       id="path3275" />
    <path
       style="fill:#ffffff;stroke:#000000;stroke-width:1;stroke-linecap:round;stroke-linejoin:round;stroke-miterlimit:4;stroke-dasharray:none;stroke-dashoffset:1.5"
       d="m 0.48522144,81.90066 c 0.21487633,2.70079 0.37594581,5.435601 0.59081116,8.136391 34.0066154,-0.07682 60.0132244,-0.148154 94.0198394,-0.22278 0.15757,-2.776513 0.172634,-5.598021 0.330204,-8.374534 z"
       id="path2525-9" />
    <path
       style="fill:#ffffff;stroke:#000000;stroke-width:1;stroke-linecap:round;stroke-linejoin:round;stroke-miterlimit:4;stroke-dasharray:none;stroke-dashoffset:1.5"
       d="m 34.470617,61.648576 c 16.834964,-0.07682 33.669928,-0.156933 50.504892,-0.235948 L 95.426076,81.439737 0.48522144,81.90066 C 4.5690677,75.324824 6.4672956,72.132382 10.963515,66.381818"
       id="path3374-3" />
    <path
       style="fill:#ffffff;stroke:#000000;stroke-width:1;stroke-linecap:round;stroke-linejoin:round;stroke-miterlimit:4;stroke-dasharray:none;stroke-dashoffset:1.5"
       d="m 42.984049,64.388874 c -1.391352,4.742021 -2.782705,9.484042 -4.174058,14.226063 6.841503,-0.115231 13.682995,-0.230462 20.524486,-0.345692 C 58.292189,73.526126 57.249889,68.78191 56.20759,64.038792 51.799739,64.15512 47.3919,64.272546 42.984049,64.388874 Z"
       id="path2531-7" />
    <path
       style="color:#000000;display:inline;overflow:visible;visibility:visible;fill:#ff2a2a;fill-opacity:1;fill-rule:nonzero;stroke:#000000;stroke-width:1;stroke-linecap:round;stroke-linejoin:round;stroke-miterlimit:4;stroke-dasharray:none;stroke-dashoffset:1.5;stroke-opacity:1;marker:none;enable-background:accumulate"
       d="m 34.093585,61.338002 c -1.772982,0.99318 -5.196103,0.448851 -5.030382,4.195498 -0.443303,2.417651 0.798995,5.700082 -2.915774,3.791641 C 19.479383,67.852382 12.783479,66.42352 6.1036714,65.057213 3.411551,62.889776 2.9420137,59.047653 3.4814428,55.910083 7.9300654,49.750175 12.2401,43.444308 16.774875,37.373292 c 3.823458,-0.527867 7.725114,0.364349 11.591023,0.408246 3.983485,0.160226 7.976285,0.852708 11.938572,0.110841 4.829001,0.56957 2.744084,7.76875 4.355503,11.245427 0.380455,4.686052 2.683705,8.336124 5.400479,12.031191"
       id="path3371" />
    <path
       style="color:#000000;display:inline;overflow:visible;visibility:visible;fill:#ffffff;fill-opacity:1;fill-rule:nonzero;stroke:#000000;stroke-width:1;stroke-linecap:round;stroke-linejoin:round;stroke-miterlimit:4;stroke-dasharray:none;stroke-dashoffset:1.5;stroke-opacity:1;marker:none;enable-background:accumulate"
       d="m 38.294668,61.124002 c 0.327998,-4.663006 0.655996,-9.324914 0.983994,-13.987919"
       id="path3373" />
    <path
       style="color:#000000;display:inline;overflow:visible;visibility:visible;fill:#ff2a2a;fill-opacity:1;fill-rule:nonzero;stroke:#000000;stroke-width:1;stroke-linecap:round;stroke-linejoin:round;stroke-miterlimit:4;stroke-dasharray:none;stroke-dashoffset:1.5;stroke-opacity:1;marker:none;enable-background:accumulate"
       d="m 17.83959,50.976011 c -1.722006,2.535077 -3.444001,5.071252 -5.165996,7.607427 7.139997,0.917456 14.279994,1.83601 21.419991,2.754564"
       id="path5019" />
    <path
       style="color:#000000;display:inline;overflow:visible;visibility:visible;fill:#ffcb9f;fill-opacity:1;fill-rule:nonzero;stroke:#000000;stroke-width:1;stroke-linecap:round;stroke-linejoin:round;stroke-miterlimit:4;stroke-dasharray:none;stroke-dashoffset:1.5;stroke-opacity:1;marker:none;enable-background:accumulate"
       d="m 35.428585,38.276482 c -1.2649,3.862975 -4.130104,9.800103 -8.712629,5.602411 -2.048819,-1.953436 -6.283674,-5.184288 -3.948737,-8.217601 0.419823,-0.837344 0.839635,-1.674687 1.259458,-2.513129"
       id="path3375" />
    <path
       style="color:#000000;display:inline;overflow:visible;visibility:visible;fill:#ffcb9f;fill-opacity:1;fill-rule:nonzero;stroke:#000000;stroke-width:1;stroke-linecap:round;stroke-linejoin:round;stroke-miterlimit:4;stroke-dasharray:none;stroke-dashoffset:1.5;stroke-opacity:1;marker:none;enable-background:accumulate"
       d="m 44.088824,26.285896 c -0.996338,6.084185 -5.689494,12.670996 -12.364343,12.722576 -4.361877,-1.139139 -7.456222,-5.322565 -9.12396,-9.255776 -0.512065,-4.523631 -2.505947,-8.874965 -2.267415,-13.462247 1.228813,-4.287682 6.581641,-4.949436 10.317882,-5.940421 5.406383,-1.235713 11.318401,1.767969 13.140088,7.087242 1.086758,2.818215 0.959175,5.948103 0.297748,8.848626 z"
       id="path3358-6" />
    <path
       style="fill:#000000;stroke:#000000;stroke-width:1;stroke-linecap:round;stroke-linejoin:round;stroke-miterlimit:4;stroke-dasharray:none;stroke-dashoffset:1.5"
       d="m 36.788306,23.273434 c -0.597318,0.924041 -0.468144,-0.538841 0.122459,-0.491651 0.07702,0.159128 -0.05135,0.352277 -0.122459,0.491651 z"
       id="path3360-4" />
    <path
       style="fill:#000000;stroke:#000000;stroke-width:1;stroke-linecap:round;stroke-linejoin:round;stroke-miterlimit:4;stroke-dasharray:none;stroke-dashoffset:1.5"
       d="m 41.935397,24.571701 c -0.597317,0.922944 -0.468144,-0.538841 0.122459,-0.492749 0.07702,0.160226 -0.05135,0.353375 -0.122459,0.492749 z"
       id="path3376-0" />
    <path
       style="fill:none;stroke:#000000;stroke-width:1;stroke-linecap:round;stroke-linejoin:round;stroke-miterlimit:4;stroke-dasharray:none;stroke-dashoffset:1.5"
       d="m 36.872461,29.482727 c 4.493422,1.704318 2.18349,-1.320215 2.46816,-3.781764"
       id="path3378-0" />
    <path
       style="color:#000000;display:inline;overflow:visible;visibility:visible;fill:#ffffff;fill-opacity:1;fill-rule:nonzero;stroke:#000000;stroke-width:1;stroke-linecap:round;stroke-linejoin:round;stroke-miterlimit:4;stroke-dasharray:none;stroke-dashoffset:1.5;stroke-opacity:1;marker:none;enable-background:accumulate"
       d="m 33.861263,32.989035 c 2.072124,0.406052 7.085016,-0.550913 3.295923,2.0544 -2.099346,1.976483 -2.795861,-0.268871 -3.295923,-2.0544 z"
       id="path3168" />
    <path
       style="color:#000000;display:inline;overflow:visible;visibility:visible;fill:#6b2e00;fill-opacity:1;fill-rule:nonzero;stroke:#000000;stroke-width:1;stroke-linecap:round;stroke-linejoin:round;stroke-miterlimit:4;stroke-dasharray:none;stroke-dashoffset:1.5;stroke-opacity:1;marker:none;enable-background:accumulate"
       d="m 25.827846,22.644603 c 5.727282,-1.1128 10.540889,-4.555456 15.658279,-7.093826 3.982531,-1.169867 2.040119,9.644268 4.664465,4.003447 C 47.518397,12.933392 41.070428,7.6865508 35.135654,6.4804686 28.921763,4.5336171 22.475725,8.3472072 19.385539,13.685136 c -2.832475,4.882493 -4.675151,10.247857 -6.960483,15.39154 2.937927,1.97319 9.319899,5.377436 11.568431,2.677744 0.274268,-3.298893 -4.359947,-7.091632 -0.672805,-10.031663 0.957606,-0.01097 1.595674,0.786862 2.507164,0.921846 z"
       id="path3362-3" />
    <path
       id="path3425-1"
       style="color:#000000;display:inline;overflow:visible;visibility:visible;fill:#ffcb9f;fill-opacity:1;fill-rule:nonzero;stroke:#000000;stroke-width:0.5;stroke-linecap:round;stroke-linejoin:round;stroke-miterlimit:4;stroke-dasharray:none;stroke-dashoffset:1.5;stroke-opacity:1;marker:none;enable-background:accumulate"
       d="m 28.702563,68.20027 c 0.133782,0.496041 0.769294,0.635415 1.508414,1.212666 1.349198,0.343497 1.588388,0 2.662595,0.782472 0.615267,0.455436 1.004522,1.649446 1.532464,2.098298 0.315512,0.197538 1.625229,-0.0309 2.065536,-0.552185 0.619229,0.366543 1.255018,0.469877 1.63126,0.382082 0.487565,-0.114133 0.47244,-0.580136 0.737064,-0.952167 0.461505,0.09877 0.859982,0.320043 1.055065,0.144453 0.327471,-0.29082 0.461278,-0.863857 0.55273,-1.129436 1.162147,0.691385 2.913935,2.183596 3.216248,2.035442 0.363646,-0.178882 0.297225,-1.13976 -0.611918,-1.91455 -0.698249,-0.593713 -2.21386,-3.7236 -3.338867,-4.862739 -0.09392,-0.897702 -1.738925,-0.902092 -2.767454,-1.36521 -3.07352,-1.383867 -6.631806,-1.676881 -6.631806,-1.676881 0,0 -1.068874,1.761385 -1.250691,3.130985 -0.181818,1.368503 -0.350195,2.317785 -0.350195,2.317785" />
  </g>
</svg>
