<?xml version="1.0" encoding="UTF-8" standalone="no"?>
<svg xmlns="http://www.w3.org/2000/svg" viewBox="0 0 48 48" version="1.1">
  <path
     d="M 42.228937,11.291062 C 41.231312,9.92975 39.839812,8.339875 38.313187,6.8118125 36.786563,5.28375 35.19525,3.8936875 33.833938,2.8960625 31.516687,1.1969375 30.394,1 29.75,1 H 7.46875 C 5.487875,1 3.875,2.6114375 3.875,4.59375 v 38.8125 C 3.875,45.387125 5.487875,47 7.46875,47 h 33.0625 C 42.512125,47 44.125,45.387125 44.125,43.40625 V 15.375 c 0,-0.644 -0.196938,-1.768125 -1.896063,-4.083938 z M 36.280563,8.8444375 C 37.659125,10.223 38.741562,11.467875 39.540812,12.5 H 32.625 V 5.5841875 c 1.032125,0.79925 2.277,1.8816875 3.655563,3.26025 z M 41.25,43.40625 c 0,0.389562 -0.329187,0.71875 -0.71875,0.71875 H 7.46875 C 7.0791875,44.125 6.75,43.795812 6.75,43.40625 V 4.59375 C 6.75,4.2041875 7.0791875,3.875 7.46875,3.875 c 0,0 22.279813,0 22.28125,0 v 10.0625 c 0,0.7935 0.644,1.4375 1.4375,1.4375 H 41.25 Z"
     style="stroke-width:1.25" />
  <path
     d="M 33.29614,41.898055 H 13.572003 c -0.989793,0 -1.793103,-0.80331 -1.793103,-1.793103 V 20.380814 c 0,-0.990689 0.80331,-1.793103 1.793103,-1.793103 h 1.793104 v 0.896551 c 0,1.485586 1.204069,2.689656 2.689655,2.689656 1.485586,0 2.689655,-1.20407 2.689655,-2.689656 v -0.896551 h 5.37931 v 0.896551 c 0,1.485586 1.204966,2.689656 2.689655,2.689656 1.48469,0 2.689655,-1.20407 2.689655,-2.689656 v -0.896551 h 1.793103 c 0.989793,0 1.793103,0.802414 1.793103,1.793103 v 19.724138 c 0,0.989793 -0.80331,1.793103 -1.793103,1.793103 z m 0,-17.034483 H 13.572003 v 15.24138 H 33.29614 Z m -15.241378,4.482759 h -2.689655 v -2.689655 h 2.689655 z m 0,4.482758 h -2.689655 v -2.689654 h 2.689655 z m 0,4.482759 h -2.689655 v -2.689655 h 2.689655 z m 4.482758,-8.965517 h -2.689654 v -2.689655 h 2.689654 z m 0,4.482758 h -2.689654 v -2.689654 h 2.689654 z m 0,4.482759 h -2.689654 v -2.689655 h 2.689654 z m 4.482759,-8.965517 h -2.689655 v -2.689655 h 2.689655 z m 0,4.482758 h -2.689655 v -2.689654 h 2.689655 z m 0,4.482759 h -2.689655 v -2.689655 h 2.689655 z m 4.482758,-8.965517 h -2.689655 v -2.689655 h 2.689655 z m 0,4.482758 h -2.689655 v -2.689654 h 2.689655 z m 0,4.482759 h -2.689655 v -2.689655 h 2.689655 z M 28.785589,21.277366 c -0.975448,0 -1.76531,-0.790758 -1.76531,-1.765311 v -1.848689 c 0,-0.975448 0.789862,-1.765311 1.76531,-1.765311 0.975448,0 1.76531,0.789863 1.76531,1.765311 v 1.848689 c 0,0.974553 -0.789862,1.765311 -1.76531,1.765311 z m -10.75862,0 c -0.975449,0 -1.76531,-0.790758 -1.76531,-1.765311 v -1.848689 c 0,-0.975448 0.789861,-1.765311 1.76531,-1.765311 0.975448,0 1.76531,0.789863 1.76531,1.765311 v 1.848689 c 0,0.974553 -0.790759,1.765311 -1.76531,1.765311 z"
     style="stroke-width:1" />
</svg>
