<?xml version="1.0" encoding="UTF-8" standalone="no"?>
<svg xmlns="http://www.w3.org/2000/svg" version="1.1" viewBox="0 0 48 48">
  <path
     d="M 42.228937,11.291062 C 41.231312,9.92975 39.839812,8.339875 38.313187,6.8118125 36.786563,5.28375 35.19525,3.8936875 33.833938,2.8960625 31.516687,1.1969375 30.394,1 29.75,1 H 7.46875 C 5.487875,1 3.875,2.6114375 3.875,4.59375 v 38.8125 C 3.875,45.387125 5.487875,47 7.46875,47 h 33.0625 C 42.512125,47 44.125,45.387125 44.125,43.40625 V 15.375 c 0,-0.644 -0.196938,-1.768125 -1.896063,-4.083938 z M 36.280563,8.8444375 C 37.659125,10.223 38.741562,11.467875 39.540812,12.5 H 32.625 V 5.5841875 c 1.032125,0.79925 2.277,1.8816875 3.655563,3.26025 z M 41.25,43.40625 c 0,0.389562 -0.329187,0.71875 -0.71875,0.71875 H 7.46875 C 7.0791875,44.125 6.75,43.795812 6.75,43.40625 V 4.59375 C 6.75,4.2041875 7.0791875,3.875 7.46875,3.875 c 0,0 22.279813,0 22.28125,0 v 10.0625 c 0,0.7935 0.644,1.4375 1.4375,1.4375 H 41.25 Z"
     style="stroke-width:1.25" />
  <path
     style="stroke-width:1"
     d="m 29.110169,34.004821 v -1.460343 c 1.950962,-1.099021 3.542373,-3.840817 3.542373,-6.581728 0,-4.402284 0,-7.970339 -5.313559,-7.970339 -5.313559,0 -5.313559,3.568055 -5.313559,7.970339 0,2.741796 1.591411,5.482707 3.542372,6.581728 v 1.460343 c -6.007864,0.491505 -10.627118,3.443187 -10.627118,7.012128 h 24.79661 c 0,-3.568941 -4.619254,-6.521509 -10.627119,-7.012128 z" />
  <path
     style="stroke-width:1"
     d="m 16.911123,34.688499 c 1.530305,-1.00072 3.433445,-1.761445 5.528758,-2.225495 -0.416229,-0.49239 -0.794377,-1.041458 -1.120275,-1.633034 -0.841314,-1.528534 -1.286767,-3.212047 -1.286767,-4.868106 0,-2.38136 0,-4.629881 0.846627,-6.469259 0.82183,-1.785355 2.300771,-2.891461 4.406712,-3.306805 -0.468479,-2.116567 -1.714509,-3.507834 -5.031941,-3.507834 -5.313559,0 -5.313559,3.568055 -5.313559,7.970339 0,2.741796 1.591411,5.482707 3.542373,6.581729 v 1.460343 C 12.475186,29.181881 7.8559321,32.133563 7.8559321,35.702504 h 7.7214869 c 0.40206,-0.356894 0.846627,-0.696962 1.333704,-1.01489 z" />
</svg>
