<?xml version="1.0" encoding="UTF-8" standalone="no"?>
<svg
   xmlns:dc="http://purl.org/dc/elements/1.1/"
   xmlns:cc="http://creativecommons.org/ns#"
   xmlns:rdf="http://www.w3.org/1999/02/22-rdf-syntax-ns#"
   xmlns:svg="http://www.w3.org/2000/svg"
   xmlns="http://www.w3.org/2000/svg"
   viewBox="0 0 48 48"
   height="48"
   width="48"
   version="1.1"
   id="svg10">
  <metadata
     id="metadata16">
    <rdf:RDF>
      <cc:Work
         rdf:about="">
        <dc:format>image/svg+xml</dc:format>
        <dc:type
           rdf:resource="http://purl.org/dc/dcmitype/StillImage" />
        <dc:title></dc:title>
      </cc:Work>
    </rdf:RDF>
  </metadata>
  <defs
     id="defs14" />
  <path
     style="stroke-width:1.25"
     d="M 42.228937,11.291062 C 41.231312,9.92975 39.839812,8.339875 38.313187,6.8118125 36.786563,5.28375 35.19525,3.8936875 33.833938,2.8960625 31.516687,1.1969375 30.394,1 29.75,1 H 7.46875 C 5.487875,1 3.875,2.6114375 3.875,4.59375 v 38.8125 C 3.875,45.387125 5.487875,47 7.46875,47 h 33.0625 C 42.512125,47 44.125,45.387125 44.125,43.40625 V 15.375 c 0,-0.644 -0.196938,-1.768125 -1.896063,-4.083938 z M 36.280563,8.8444375 C 37.659125,10.223 38.741562,11.467875 39.540812,12.5 H 32.625 V 5.5841875 c 1.032125,0.79925 2.277,1.8816875 3.655563,3.26025 z M 41.25,43.40625 c 0,0.389562 -0.329187,0.71875 -0.71875,0.71875 H 7.46875 C 7.0791875,44.125 6.75,43.795812 6.75,43.40625 V 4.59375 C 6.75,4.2041875 7.0791875,3.875 7.46875,3.875 c 0,0 22.279813,0 22.28125,0 v 10.0625 c 0,0.7935 0.644,1.4375 1.4375,1.4375 H 41.25 Z"
     id="path2" />
  <path
     id="path2-1"
     d="m 13.855705,32.418589 c 0,0.265409 -0.216278,0.481687 -0.48169,0.481687 h -2.890121 c -0.265412,0 -0.481686,-0.216278 -0.481686,-0.481687 V 20.858093 c 0,-0.265408 0.216274,-0.481686 0.481686,-0.481686 h 2.890121 c 0.265412,0 0.48169,0.216278 0.48169,0.481686 z m 0.963374,-4.335187 v -2.890121 h 1.926746 v 2.890121 z m 14.450615,-6.743618 c 0.531301,0 0.963374,0.432073 0.963374,0.963373 v 3.853498 c 0,0.5313 -0.432073,0.963373 -0.963374,0.963373 h -0.963377 v -4.816871 c 0,-0.5313 0.432077,-0.963373 0.963377,-0.963373 z M 26.37957,20.376407 c 0.531301,0 0.963374,0.432077 0.963374,0.963377 v 0.963373 4.816871 h -1.926747 v -5.780244 c 0,-0.5313 0.432073,-0.963377 0.963373,-0.963377 z m -3.853497,0 c 0,-0.531301 0.432073,-0.963374 0.963373,-0.963374 0.531301,0 0.963373,0.432073 0.963373,0.963374 v 0.963377 5.780244 h -1.926746 v -1.231192 c 0.573208,-0.334291 0.963373,-0.948924 0.963373,-1.658932 0,-0.710004 -0.390165,-1.324637 -0.963373,-1.658928 V 21.339784 Z M 21.5627,27.120028 H 20.599322 V 26.156655 H 21.5627 Z m -1.926751,-5.780244 c 0,-0.5313 0.432073,-0.963377 0.963373,-0.963377 0.531301,0 0.963378,0.432077 0.963378,0.963377 v 0.963373 h -1.926751 z m 9.633745,9.633742 c 0,1.593901 -1.296222,2.890124 -2.890124,2.890124 v 0.963373 c 0.333329,0 0.654615,-0.04673 0.963374,-0.126683 v 2.053434 H 20.599322 V 34.827023 H 21.5627 V 33.86365 h -0.963378 c -1.593902,0 -2.890119,-1.296223 -2.890119,-2.890124 v -6.743622 c 0,-0.531301 0.432072,-0.963373 0.963373,-0.963373 H 21.5627 c 0.531301,0 0.963373,0.432072 0.963373,0.963373 0,0.5313 -0.432072,0.963377 -0.963373,0.963377 h -1.445064 c -0.265892,0 -0.481687,0.215795 -0.481687,0.481687 v 3.371811 h -0.963373 v 0.963373 h 1.926746 c 1.062606,0 1.926751,0.864145 1.926751,1.926747 h 0.963373 c 0,-0.531301 0.432073,-0.963373 0.963373,-0.963373 h 1.926751 v -0.963374 h -1.926751 c -0.512994,0 -0.977342,0.204715 -1.323193,0.533227 -0.492766,-0.891121 -1.44169,-1.4966 -2.530304,-1.4966 v -0.963377 h 1.445065 2.890124 2.89012 1.445063 z m 0.963374,-2.890124 v -0.267815 c 0.573208,-0.334292 0.963373,-0.948925 0.963373,-1.658932 v -0.963374 h 1.926751 v 2.890121 z m 7.706994,4.335187 c 0,0.265409 -0.216278,0.481687 -0.481686,0.481687 h -2.890124 c -0.265409,0 -0.481687,-0.216278 -0.481687,-0.481687 V 20.858093 c 0,-0.265408 0.216278,-0.481686 0.481687,-0.481686 h 2.890124 c 0.265408,0 0.481686,0.216278 0.481686,0.481686 z"
     style="stroke-width:8" />
</svg>
