<?xml version="1.0" encoding="UTF-8" standalone="no"?>
<svg
   xmlns="http://www.w3.org/2000/svg" version="1.1" viewBox="0 0 48 48">
  <path
     style="stroke-width:1.25"
     d="M 42.228937,11.291062 C 41.231312,9.92975 39.839812,8.339875 38.313187,6.8118125 36.786563,5.28375 35.19525,3.8936875 33.833938,2.8960625 31.516687,1.1969375 30.394,1 29.75,1 H 7.46875 C 5.487875,1 3.875,2.6114375 3.875,4.59375 v 38.8125 C 3.875,45.387125 5.487875,47 7.46875,47 h 33.0625 C 42.512125,47 44.125,45.387125 44.125,43.40625 V 15.375 c 0,-0.644 -0.196938,-1.768125 -1.896063,-4.083938 z M 36.280563,8.8444375 C 37.659125,10.223 38.741562,11.467875 39.540812,12.5 H 32.625 V 5.5841875 c 1.032125,0.79925 2.277,1.8816875 3.655563,3.26025 z M 41.25,43.40625 c 0,0.389562 -0.329187,0.71875 -0.71875,0.71875 H 7.46875 C 7.0791875,44.125 6.75,43.795812 6.75,43.40625 V 4.59375 C 6.75,4.2041875 7.0791875,3.875 7.46875,3.875 c 0,0 22.279813,0 22.28125,0 v 10.0625 c 0,0.7935 0.644,1.4375 1.4375,1.4375 H 41.25 Z"
     id="path2" />
  <path
     id="path4"
     d="M 27.000025,30.5 V 34 c 0,0.547 -0.453,1 -1,1 h -4 c -0.547,0 -1,-0.453 -1,-1 v -3.5 c 0,-0.547 0.453,-1 1,-1 h 4 c 0.547,0 1,0.453 1,1 z m 0.469,-16.5 -0.438,12 c -0.016,0.547 -0.484,1 -1.031,1 h -4 c -0.547,0 -1.016,-0.453 -1.031,-1 l -0.438,-12 c -0.016,-0.547 0.422,-1 0.969,-1 h 5 c 0.547,0 0.984,0.453 0.969,1 z" />
</svg>
