<?xml version="1.0" encoding="UTF-8" standalone="no"?>
<svg
   xmlns:dc="http://purl.org/dc/elements/1.1/"
   xmlns:cc="http://creativecommons.org/ns#"
   xmlns:rdf="http://www.w3.org/1999/02/22-rdf-syntax-ns#"
   xmlns:svg="http://www.w3.org/2000/svg"
   xmlns="http://www.w3.org/2000/svg"
   viewBox="0 0 96 96"
   version="1.0"
   width="96"
   height="96"
   id="svg22">
  <metadata
     id="metadata28">
    <rdf:RDF>
      <cc:Work
         rdf:about="">
        <dc:format>image/svg+xml</dc:format>
        <dc:type
           rdf:resource="http://purl.org/dc/dcmitype/StillImage" />
        <dc:title></dc:title>
      </cc:Work>
    </rdf:RDF>
  </metadata>
  <defs
     id="defs26" />
  <circle
     id="circle2"
     r="47"
     cy="48"
     cx="48.000004"
     style="fill:#e3f2fd;fill-opacity:1;stroke-width:0.186462" />
  <g
     id="g8"
     transform="matrix(0.05101979,0,0,0.05101979,22.48975,22.489736)"
     style="fill:#183651;fill-opacity:1;stroke-width:1.3883779">
    <g
       transform="matrix(0.1,0,0,-0.1,0,512)"
       id="g6"
       style="fill:#183651;fill-opacity:1;stroke-width:1.3883779">
      <path
         d="m 4588.5,4999.1 c -841.3,-130.3 -1406.6,-596 -1594.4,-1310.8 -40.2,-153.3 -47.9,-228 -47.9,-452.2 -1.9,-402.4 65.2,-661.1 233.8,-919.8 86.2,-132.2 325.8,-371.8 465.7,-467.6 49.8,-32.6 90.1,-63.2 90.1,-67.1 0,-1.9 -69,-59.4 -155.2,-124.6 -456.1,-354.5 -693.7,-935.2 -632.4,-1540.7 26.8,-262.5 63.2,-392.8 162.9,-597.9 147.6,-300.9 402.4,-534.6 860.4,-795.3 113.1,-63.2 534.7,-279.8 937.1,-479.1 404.3,-199.3 812.5,-413.9 908.3,-477.2 304.7,-201.2 404.3,-358.3 423.5,-672.6 32.6,-507.8 -220.4,-847 -741.6,-996.5 -220.4,-63.2 -638.1,-74.7 -891.1,-21.1 -241.5,49.8 -469.5,159.1 -603.6,289.4 -153.3,149.5 -249.1,392.9 -249.1,630.5 0,111.1 -76.7,272.1 -157.1,329.6 -99.6,70.9 -220.4,97.7 -339.2,72.8 -143.7,-28.8 -275.9,-159.1 -306.6,-300.9 -23,-113.1 -1.9,-383.3 46,-563.4 107.3,-413.9 379.4,-772.3 756.9,-1000.3 709,-429.2 1858.8,-417.8 2535.3,26.8 396.7,258.7 632.4,601.7 735.9,1061.7 40.2,184 40.2,605.5 -1.9,795.3 -84.3,381.3 -285.5,686 -611.3,921.7 -80.5,57.5 -145.7,111.2 -147.6,116.9 0,5.7 55.6,49.8 124.6,101.6 481,352.6 726.3,937.1 661.1,1577.1 -63.2,622.8 -350.7,1000.3 -1067.4,1400.8 -97.7,55.6 -490.6,254.9 -871.9,442.7 -785.7,387.1 -948.6,481 -1111.5,630.5 -174.4,162.9 -245.3,339.2 -245.3,613.2 1.9,592.1 413.9,944.7 1144,975.4 413.9,17.2 741.6,-61.3 969.6,-231.9 222.3,-166.7 325.8,-369.9 350.7,-688 13.4,-170.6 49.8,-262.5 136.1,-343 170.5,-162.9 427.3,-143.7 586.4,42.2 86.2,101.6 97.7,162.9 84.3,410.1 -47.9,812.5 -622.8,1418.1 -1512,1592.5 -218.4,44.2 -707.1,53.7 -925.6,19.2 z m 551.9,-3949.5 c 688,-343 891.1,-479.1 1004.2,-672.6 136.1,-233.8 134.1,-651.5 -7.7,-910.2 -115,-210.8 -369.8,-383.3 -684.1,-459.9 l -157.1,-38.3 -498.2,249.1 c -555.7,281.7 -701.4,369.9 -845.1,515.5 -124.6,126.5 -178.2,262.5 -191.6,484.8 -26.8,419.7 145.6,735.9 494.4,908.3 118.8,59.4 354.5,139.9 425.4,143.7 7.6,1.9 214.6,-97.8 459.8,-220.4 z"
         id="path4"
         style="fill:#183651;fill-opacity:1;stroke-width:1.3883779" />
    </g>
  </g>
</svg>
