<?xml version="1.0" encoding="UTF-8" standalone="no"?>
<svg
   xmlns="http://www.w3.org/2000/svg"
   viewBox="0 0 100 100"
   version="1.1">
  <path
     style="fill:#7030a0;fill-opacity:1"
     id="path4"
     d="M 43.75,25 H 37.5 v 6.25 h 6.25 z m 0,-12.5 H 37.5 v 6.25 h 6.25 z M 81.25,0 C 78.125,0 21.875,0 18.75,0 15.625,0 12.5,3.125 12.5,6.25 c 0,3.125 0,71.875 0,75 0,3.125 3.125,6.25 6.25,6.25 3.125,0 12.5,0 12.5,0 V 100 L 40.625,90.625 50,100 V 87.5 c 0,0 28.125,0 31.25,0 3.125,0 6.25,-3.125 6.25,-6.25 0,-3.125 0,-71.875 0,-75 C 87.5,3.125 84.375,0 81.25,0 Z m 0,78.125 c 0,1.5625 -1.465625,3.125 -3.125,3.125 -1.659375,0 -28.125,0 -28.125,0 V 75 H 31.25 v 6.25 c 0,0 -7.715625,0 -9.375,0 -1.659375,0 -3.125,-1.659375 -3.125,-3.125 0,-1.465625 0,-9.375 0,-9.375 h 62.5 c 0,0 0,7.8125 0,9.375 z m 0,-15.625 h -50 V 6.25 H 81.346875 Z M 43.75,50 H 37.5 v 6.25 h 6.25 z m 0,-12.5 H 37.5 v 6.25 h 6.25 z" />
</svg>
