<?xml version="1.0" encoding="UTF-8" standalone="no"?>
<svg xmlns="http://www.w3.org/2000/svg" version="1.1">
  <path
     d="M 65.625,37.5 H 56.25 v 9.375 h 9.375 z m 0,-18.75 H 56.25 v 9.375 h 9.375 z M 121.875,0 c -4.6875,0 -89.0625,0 -93.75,0 -4.6875,0 -9.375,4.6875 -9.375,9.375 0,4.6875 0,107.8125 0,112.5 0,4.6875 4.6875,9.375 9.375,9.375 4.6875,0 18.75,0 18.75,0 V 150 L 60.9375,135.9375 75,150 v -18.75 c 0,0 42.1875,0 46.875,0 4.6875,0 9.375,-4.6875 9.375,-9.375 0,-4.6875 0,-107.8125 0,-112.5 C 131.25,4.6875 126.5625,0 121.875,0 Z m 0,117.1875 c 0,2.34375 -2.19844,4.6875 -4.6875,4.6875 -2.48906,0 -42.1875,0 -42.1875,0 V 112.5 H 46.875 v 9.375 c 0,0 -11.573437,0 -14.0625,0 -2.489063,0 -4.6875,-2.48907 -4.6875,-4.6875 0,-2.19844 0,-14.0625 0,-14.0625 h 93.75 c 0,0 0,11.71875 0,14.0625 z m 0,-23.4375 h -75 V 9.375 h 75.14531 z M 65.625,75 H 56.25 v 9.375 h 9.375 z m 0,-18.75 H 56.25 v 9.375 h 9.375 z"
     style="fill-opacity:1;stroke-width:1" />
</svg>
