<?xml version="1.0" encoding="UTF-8" standalone="no"?>
<svg xmlns="http://www.w3.org/2000/svg" version="1.1" viewBox="0 0 48 48">
  <path
     style="stroke-width:1.25"
     d="M 42.228937,11.291062 C 41.231312,9.92975 39.839812,8.339875 38.313187,6.8118125 36.786563,5.28375 35.19525,3.8936875 33.833938,2.8960625 31.516687,1.1969375 30.394,1 29.75,1 H 7.46875 C 5.487875,1 3.875,2.6114375 3.875,4.59375 v 38.8125 C 3.875,45.387125 5.487875,47 7.46875,47 h 33.0625 C 42.512125,47 44.125,45.387125 44.125,43.40625 V 15.375 c 0,-0.644 -0.196938,-1.768125 -1.896063,-4.083938 z M 36.280563,8.8444375 C 37.659125,10.223 38.741562,11.467875 39.540812,12.5 H 32.625 V 5.5841875 c 1.032125,0.79925 2.277,1.8816875 3.655563,3.26025 z M 41.25,43.40625 c 0,0.389562 -0.329187,0.71875 -0.71875,0.71875 H 7.46875 C 7.0791875,44.125 6.75,43.795812 6.75,43.40625 V 4.59375 C 6.75,4.2041875 7.0791875,3.875 7.46875,3.875 c 0,0 22.279813,0 22.28125,0 v 10.0625 c 0,0.7935 0.644,1.4375 1.4375,1.4375 H 41.25 Z"
     id="path2" />
  <path
     d="M 34.143747,18.208872 H 13.528734 c -1.894291,0 -3.435836,1.541545 -3.435836,3.435836 v 12.598063 c 0,1.894291 1.541545,3.435836 3.435836,3.435836 h 6.871671 v 2.290557 h -2.896517 c -0.632194,0 -1.145278,0.513084 -1.145278,1.145278 0,0.632194 0.513084,0.738499 1.145278,0.738499 h 12.378875 c 0.632194,0 1.145279,-0.106305 1.145279,-0.738499 0,-0.632194 -0.513085,-1.145278 -1.145279,-1.145278 h -2.610687 v -2.290557 h 6.871671 c 1.89429,0 3.435835,-1.541545 3.435835,-3.435836 V 21.644708 c 0,-1.894291 -1.541545,-3.435836 -3.435835,-3.435836 z m -8.01695,21.760292 h -4.581114 v -2.290557 h 4.581114 z m 9.51816,-5.77724 c 0,0.631049 -0.870162,1.501211 -1.50121,1.501211 H 13.528734 c -0.631049,0 -1.552059,-0.971857 -1.552059,-1.602906 V 21.492166 c 0,-0.631049 0.971857,-1.552059 1.602906,-1.552059 h 20.615013 c 0.631048,0 1.450363,1.022705 1.450363,1.653754 z"
     id="path4"
     style="stroke:none;stroke-width:1;stroke-miterlimit:4;stroke-dasharray:none;stroke-opacity:1" />
  <path
     d="M 32.998468,21.644708 H 14.674012 c -0.629903,0 -1.145278,0.515375 -1.145278,1.145278 v 9.162228 c 0,0.629903 0.515375,1.145279 1.145278,1.145279 h 18.324456 c 0.629903,0 1.145279,-0.515376 1.145279,-1.145279 v -9.162228 c 0,-0.629903 -0.515376,-1.145278 -1.145279,-1.145278 z m 0,10.307506 H 14.674012 v -9.162228 h 18.324456 z"
     id="path6"
     style="stroke-width:1" />
  <path
     d="m 25.235507,28.968854 0.746573,0.746573 2.488575,-2.488575 -2.488575,-2.488575 -0.746573,0.746572 1.742003,1.742003 z"
     id="path4-5"
     style="stroke-width:1" />
  <path
     d="m 22.249217,25.484849 -0.746572,-0.746572 -2.488575,2.488575 2.488575,2.488575 0.746572,-0.746573 -1.742002,-1.742002 z"
     id="path6-4"
     style="stroke-width:1" />
  <path
     d="m 24.219173,24.415758 0.54027,0.147323 -1.493145,5.475114 -0.54027,-0.147324 z"
     id="path8"
     style="stroke-width:1" />
  <path
     style="opacity:1;fill:#ffffff;fill-opacity:1;stroke:none;stroke-width:1;stroke-linecap:butt;stroke-linejoin:miter;stroke-miterlimit:4;stroke-dasharray:none;stroke-opacity:1;paint-order:fill markers stroke"
     id="path849"
     d="m 6.2770385,58.946036 c 0.4571505,0.01249 0.9145093,0.01263 1.3717901,0.01465 0.592531,9.57e-4 1.1850816,2.12e-4 1.7776058,-0.0031 0.4789856,4.91e-4 0.9579646,-0.0025 1.4369486,-0.0022 0.329806,-10e-4 0.659598,-0.0042 0.989399,-0.0061 0.143482,0.01479 0.294028,-0.02102 0.436915,-0.0013 0.106341,0.01468 0.305373,0.07882 0.395292,0.105355 0.725504,0.297107 1.383245,0.731982 2.037682,1.157991 0.08356,0.05177 0.167127,0.103536 0.250691,0.155304 0,0 -1.231623,0.790844 -1.231623,0.790844 v 0 c -0.08054,-0.05459 -0.161074,-0.109183 -0.241611,-0.163775 -0.633694,-0.43719 -1.288529,-0.869697 -2.028892,-1.10277 -0.276595,-0.05566 -0.549425,-0.07112 -0.831359,-0.06043 -0.324168,-0.0019 -0.6483272,-0.0052 -0.9725002,-0.0061 -0.4769255,2.07e-4 -0.9538464,-0.0027 -1.4307736,-0.0022 -0.589688,-0.0033 -1.1794029,-0.004 -1.7690979,-0.0031 -0.4707281,0.0021 -0.9415221,0.0025 -1.4121295,0.01465 0,0 1.2216627,-0.887589 1.2216627,-0.887589 z" />
</svg>
