<?xml version="1.0" encoding="UTF-8" standalone="no"?>
<svg
   xmlns="http://www.w3.org/2000/svg" viewBox="0 0 48 48" version="1.1">
  <path
     d="M 42.228937,11.291062 C 41.231312,9.92975 39.839812,8.339875 38.313187,6.8118125 36.786563,5.28375 35.19525,3.8936875 33.833938,2.8960625 31.516687,1.1969375 30.394,1 29.75,1 H 7.46875 C 5.487875,1 3.875,2.6114375 3.875,4.59375 v 38.8125 C 3.875,45.387125 5.487875,47 7.46875,47 h 33.0625 C 42.512125,47 44.125,45.387125 44.125,43.40625 V 15.375 c 0,-0.644 -0.196938,-1.768125 -1.896063,-4.083938 z M 36.280563,8.8444375 C 37.659125,10.223 38.741562,11.467875 39.540812,12.5 H 32.625 V 5.5841875 c 1.032125,0.79925 2.277,1.8816875 3.655563,3.26025 z M 41.25,43.40625 c 0,0.389562 -0.329187,0.71875 -0.71875,0.71875 H 7.46875 C 7.0791875,44.125 6.75,43.795812 6.75,43.40625 V 4.59375 C 6.75,4.2041875 7.0791875,3.875 7.46875,3.875 c 0,0 22.279813,0 22.28125,0 v 10.0625 c 0,0.7935 0.644,1.4375 1.4375,1.4375 H 41.25 Z"
     style="stroke-width:1.25" />
  <path
     style="stroke-width:0.89194918"
     d="M 37.34571,36.648301 C 33.777913,25.944911 24.440098,8.1059282 8.8033384,8.1059282 16.134267,13.987441 19.506727,27.728809 24.858422,27.728809 c 5.351695,0 5.351695,0 5.351695,0 l 5.351695,8.919492 z" />
  <path
     d="M 37.10057,40.545998 H 11.241948 c -1.019568,0 -1.8470441,-0.448 -1.8470441,-1 0,-0.552 0.8274761,-1 1.8470441,-1 H 37.10057 c 1.019567,0 1.847044,0.448 1.847044,1 0,0.552 -0.827477,1 -1.847044,1 z"
     style="stroke:none;stroke-width:1.01386416;stroke-opacity:1" />
  <path
     d="M 24.62622,35.437564 H 10.602344 c -0.552941,0 -1.001705,-0.448 -1.001705,-1 0,-0.552 0.448764,-1 1.001705,-1 H 24.62622 c 0.552941,0 1.001705,0.448 1.001705,1 0,0.552 -0.448764,1 -1.001705,1 z"
     style="stroke:none;stroke-width:0.74663979;stroke-opacity:1" />
</svg>
