<?xml version="1.0" encoding="UTF-8"?>
<svg 
xmlns="http://www.w3.org/2000/svg" 
xmlns:xlink="http://www.w3.org/1999/xlink"
version="1.1" class="iconic-clock" x="0px" y="0px" width="500" height="500" viewBox="0 0 500 500" enable-background="new 0 0 384 384" xml:space="preserve" id="svg13"
>
	<path id="path2" d="m 250,100 c -58.9841,-0.819163 -115.86926,37.0925 -138.21229,91.61312 -23.327182,53.5604 -11.25732,120.09465 29.6319,161.87804 39.34149,42.34051 104.15649,57.78899 158.42755,38.02754 56.25333,-19.10944 97.72903,-74.36951 99.95766,-133.7997 3.73422,-57.77308 -29.7524,-115.51991 -81.51697,-141.30913 C 297.25836,105.60305 273.63846,99.964007 250,100 Z m 96.12266,246.12266 c -7.26569,5.45688 -17.94423,19.62468 -25.3853,17.02124 -3.47573,-6.0201 -6.95147,-12.04021 -10.4272,-18.06031 -4.54765,2.51853 -11.08431,4.5039 -5.15223,9.83154 2.9135,5.04678 5.82701,10.09356 8.74051,15.14034 -18.17336,9.732 -38.61632,15.12732 -59.2125,15.79375 0,-7.78307 0,-15.56615 0,-23.34922 -5.19733,-0.0924 -11.84899,-1.63919 -9.375,5.9397 0,5.80317 0,11.60635 0,17.40952 -20.59665,-0.66567 -41.03955,-6.06274 -59.21328,-15.79453 3.90338,-6.7612 7.80677,-13.5224 11.71015,-20.2836 -4.45498,-2.67853 -9.44239,-7.34409 -11.08948,0.45637 -2.91002,5.04007 -5.82003,10.08013 -8.73005,15.1202 -17.45933,-10.94177 -32.39657,-25.87865 -43.33906,-43.3375 6.75495,-3.9 13.50989,-7.8 20.26484,-11.7 -2.51853,-4.54765 -4.50396,-11.08442 -9.83131,-5.15182 -5.04607,2.91363 -10.09215,5.82725 -15.13822,8.74088 -9.73255,-18.17286 -15.12734,-38.61581 -15.79375,-59.21172 7.78307,0 15.56615,0 23.34922,0 0.0924,-5.19733 1.63919,-11.84899 -5.9397,-9.375 -5.80317,0 -11.60635,0 -17.40952,0 0.66641,-20.59595 6.06218,-41.03847 15.79375,-59.21172 6.76042,3.90313 13.52083,7.80625 20.28125,11.70938 2.67911,-4.45507 7.34824,-9.4432 -0.45338,-11.09082 -5.04028,-2.90983 -10.08056,-5.81967 -15.12084,-8.7295 10.94285,-17.45895 25.88011,-32.39622 43.33907,-43.33906 3.9,6.75495 7.79999,13.50989 11.69999,20.26484 4.54754,-2.51856 11.08357,-4.50424 5.15098,-9.83127 -2.91387,-5.04635 -5.82773,-10.09269 -8.7416,-15.13904 18.17324,-9.7324 38.61621,-15.12818 59.2125,-15.79453 0,7.78307 0,15.56615 0,23.34922 5.19733,0.0924 11.84899,1.63919 9.375,-5.9397 0,-5.80317 0,-11.60635 0,-17.40952 20.59622,0.66626 41.03905,6.06196 59.2125,15.79375 -3.90391,6.76172 -7.80781,13.52344 -11.71172,20.28516 4.45549,2.67799 9.44381,7.34417 11.091,-0.4564 2.91056,-5.04109 5.82111,-10.08219 8.73166,-15.12329 17.45859,10.94279 32.39685,25.87939 43.33828,43.33906 -6.75521,3.9 -13.51042,7.8 -20.26563,11.7 2.51853,4.54765 4.50391,11.08433 9.83151,5.15217 5.04705,-2.91375 10.0941,-5.82749 15.14115,-8.74123 9.73169,18.17361 15.1273,38.61633 15.79531,59.2125 -7.78385,0 -15.56771,0 -23.35156,0 -0.0924,5.19733 -1.63919,11.84899 5.9397,9.375 5.80317,0 11.60635,0 17.40952,0 -0.66643,20.59618 -6.06175,41.03914 -15.79375,59.2125 -6.76146,-3.90339 -13.52292,-7.80677 -20.28438,-11.71016 -2.67828,4.45553 -7.3462,9.44416 0.45479,11.09187 5.04085,2.91052 10.08171,5.82105 15.12256,8.73157 -5.47153,8.72788 -11.941,16.82702 -19.22578,24.10938 z" style="fill:#808080;stroke-width:1" />
	<path id="circle4" d="m 257.03125,250 c 0.44664,7.90753 -12.12126,9.62352 -13.80627,1.88085 -2.62195,-7.76826 9.71982,-12.59345 13.04132,-5.0702 0.50157,0.98311 0.76592,2.08589 0.76495,3.18935 z" style="fill:#d53a1f;stroke-width:1" />
	<g style="stroke-width:1.27999997" class="iconic-clock-second-hand" id="iconic-anim-clock-second-hand" transform="matrix(0.78125,0,0,0.78125,100,99.60937)">
		<path id="line6" d="m 192,192 c 0,-54.5 0,-109 0,-163.5" style="fill:none;stroke:#d53a1f;stroke-width:5.11999989;stroke-miterlimit:10" />
		<path id="circle8" d="m 196.5,192 c 0.19264,6.74217 -10.97023,5.02819 -8.79901,-1.32984 1.37284,-4.86849 8.91309,-3.73531 8.79901,1.32984 z" style="fill:#d53a1f;stroke-width:1.27999997" />
	</g>
	<defs>
		<animateTransform
			 type="rotate"
			 fill="remove"
			 restart="always"
			 calcMode="linear"
			 accumulate="none"
			 additive="sum"
			 xlink:href="#iconic-anim-clock-hour-hand"
			 repeatCount="indefinite"
			 dur="43200s"
			 to="360 192 192"
			 from="0 192 192"
			 attributeName="transform"
			 attributeType="xml">
		</animateTransform>

		<animateTransform
			 type="rotate"
			 fill="remove"
			 restart="always"
			 calcMode="linear"
			 accumulate="none"
			 additive="sum"
			 xlink:href="#iconic-anim-clock-minute-hand"
			 repeatCount="indefinite"
			 dur="3600s"
			 to="360 192 192"
			 from="0 192 192"
			 attributeName="transform"
			 attributeType="xml">
		</animateTransform>

		<animateTransform
			 type="rotate"
			 fill="remove"
			 restart="always"
			 calcMode="linear"
			 accumulate="none"
			 additive="sum"
			 xlink:href="#iconic-anim-clock-second-hand"
			 repeatCount="indefinite"
			 dur="60s"
			 to="360 192 192"
			 from="0 192 192"
			 attributeName="transform"
			 attributeType="xml">
		</animateTransform> 
	</defs>
</svg>