<?xml version="1.0" encoding="UTF-8" standalone="no"?>
<svg xmlns="http://www.w3.org/2000/svg" height="80" width="80" viewBox="0 0 80 80" version="1.1">
  <defs
     id="defs347">
    <linearGradient
       id="XMLID_52_"
       y2="120.4"
       gradientUnits="userSpaceOnUse"
       y1="120.4"
       x2="80.484001"
       x1="2.3301001">
      <stop
         id="stop6"
         style="stop-color:#CC9158"
         offset="0" />
      <stop
         id="stop8"
         style="stop-color:#CC853F"
         offset=".3477" />
      <stop
         id="stop10"
         style="stop-color:#CC6906"
         offset="1" />
    </linearGradient>
    <linearGradient
       id="XMLID_53_"
       y2="379.25"
       gradientUnits="userSpaceOnUse"
       y1="379.25"
       gradientTransform="matrix(0.2024,20.108,20.108,-0.2024,-7531.7005,5452.2001)"
       x2="-262.04999"
       x1="-263.95999">
      <stop
         id="stop15"
         style="stop-color:#FFFA5F"
         offset="0" />
      <stop
         id="stop17"
         style="stop-color:#9F3300"
         offset="1" />
    </linearGradient>
    <linearGradient
       id="XMLID_62_"
       y2="464.54001"
       gradientUnits="userSpaceOnUse"
       y1="464.54001"
       gradientTransform="matrix(209.14,21.224,21.224,-209.14,46446,102930)"
       x2="-267.79001"
       x1="-269.66">
      <stop
         id="stop126"
         style="stop-color:#FFFFFF"
         offset="0" />
      <stop
         id="stop128"
         style="stop-color:#848484"
         offset="1" />
    </linearGradient>
    <linearGradient
       id="XMLID_63_"
       y2="434.39999"
       gradientUnits="userSpaceOnUse"
       y1="434.39999"
       gradientTransform="matrix(0,56.133,56.133,0,-24343.001,14680)"
       x2="-261.32001"
       x1="-263.22">
      <stop
         id="stop135"
         style="stop-color:#FFFA5F"
         offset="0" />
      <stop
         id="stop137"
         style="stop-color:#9F3300"
         offset="1" />
    </linearGradient>
    <linearGradient
       id="XMLID_64_"
       y2="18.721001"
       gradientUnits="userSpaceOnUse"
       y1="18.721001"
       x2="80.281998"
       x1="2.1284001">
      <stop
         id="stop142"
         style="stop-color:#CC9158"
         offset="0" />
      <stop
         id="stop144"
         style="stop-color:#CC853F"
         offset=".3477" />
      <stop
         id="stop146"
         style="stop-color:#CC6906"
         offset="1" />
    </linearGradient>
    <filter
       id="filter896"
       style="color-interpolation-filters:sRGB;">
      <feColorMatrix
         id="feColorMatrix894"
         values="0.21 0.72 0.072 0 0 0.21 0.72 0.072 0 0 0.21 0.72 0.072 0 0 0 0 0 1 0 " />
    </filter>
    <filter
       id="filter900"
       style="color-interpolation-filters:sRGB;">
      <feColorMatrix
         id="feColorMatrix898"
         values="0.21 0.72 0.072 0 0 0.21 0.72 0.072 0 0 0.21 0.72 0.072 0 0 0 0 0 1 0 " />
    </filter>
    <filter
       id="filter904"
       style="color-interpolation-filters:sRGB;">
      <feColorMatrix
         id="feColorMatrix902"
         values="0.21 0.72 0.072 0 0 0.21 0.72 0.072 0 0 0.21 0.72 0.072 0 0 0 0 0 1 0 " />
    </filter>
    <filter
       id="filter908"
       style="color-interpolation-filters:sRGB;">
      <feColorMatrix
         id="feColorMatrix906"
         values="0.21 0.72 0.072 0 0 0.21 0.72 0.072 0 0 0.21 0.72 0.072 0 0 0 0 0 1 0 " />
    </filter>
    <filter
       id="filter912"
       style="color-interpolation-filters:sRGB;">
      <feColorMatrix
         id="feColorMatrix910"
         values="0.21 0.72 0.072 0 0 0.21 0.72 0.072 0 0 0.21 0.72 0.072 0 0 0 0 0 1 0 " />
    </filter>
    <filter
       id="filter916"
       style="color-interpolation-filters:sRGB;">
      <feColorMatrix
         id="feColorMatrix914"
         values="0.21 0.72 0.072 0 0 0.21 0.72 0.072 0 0 0.21 0.72 0.072 0 0 0 0 0 1 0 " />
    </filter>
    <filter
       id="filter920"
       style="color-interpolation-filters:sRGB;">
      <feColorMatrix
         id="feColorMatrix918"
         values="0.21 0.72 0.072 0 0 0.21 0.72 0.072 0 0 0.21 0.72 0.072 0 0 0 0 0 1 0 " />
    </filter>
    <filter
       id="filter924"
       style="color-interpolation-filters:sRGB;">
      <feColorMatrix
         id="feColorMatrix922"
         values="0.21 0.72 0.072 0 0 0.21 0.72 0.072 0 0 0.21 0.72 0.072 0 0 0 0 0 1 0 " />
    </filter>
    <filter
       id="filter928"
       style="color-interpolation-filters:sRGB;">
      <feColorMatrix
         id="feColorMatrix926"
         values="0.21 0.72 0.072 0 0 0.21 0.72 0.072 0 0 0.21 0.72 0.072 0 0 0 0 0 1 0 " />
    </filter>
    <filter
       id="filter932"
       style="color-interpolation-filters:sRGB;">
      <feColorMatrix
         id="feColorMatrix930"
         values="0.21 0.72 0.072 0 0 0.21 0.72 0.072 0 0 0.21 0.72 0.072 0 0 0 0 0 1 0 " />
    </filter>
    <filter
       id="filter936"
       style="color-interpolation-filters:sRGB;">
      <feColorMatrix
         id="feColorMatrix934"
         values="0.21 0.72 0.072 0 0 0.21 0.72 0.072 0 0 0.21 0.72 0.072 0 0 0 0 0 1 0 " />
    </filter>
    <filter
       id="filter940"
       style="color-interpolation-filters:sRGB;">
      <feColorMatrix
         id="feColorMatrix938"
         values="0.21 0.72 0.072 0 0 0.21 0.72 0.072 0 0 0.21 0.72 0.072 0 0 0 0 0 1 0 " />
    </filter>
    <filter
       id="filter944"
       style="color-interpolation-filters:sRGB;">
      <feColorMatrix
         id="feColorMatrix942"
         values="0.21 0.72 0.072 0 0 0.21 0.72 0.072 0 0 0.21 0.72 0.072 0 0 0 0 0 1 0 " />
    </filter>
    <filter
       id="filter948"
       style="color-interpolation-filters:sRGB;">
      <feColorMatrix
         id="feColorMatrix946"
         values="0.21 0.72 0.072 0 0 0.21 0.72 0.072 0 0 0.21 0.72 0.072 0 0 0 0 0 1 0 " />
    </filter>
    <filter
       id="filter952"
       style="color-interpolation-filters:sRGB;">
      <feColorMatrix
         id="feColorMatrix950"
         values="0.21 0.72 0.072 0 0 0.21 0.72 0.072 0 0 0.21 0.72 0.072 0 0 0 0 0 1 0 " />
    </filter>
    <filter
       id="filter956"
       style="color-interpolation-filters:sRGB;">
      <feColorMatrix
         id="feColorMatrix954"
         values="0.21 0.72 0.072 0 0 0.21 0.72 0.072 0 0 0.21 0.72 0.072 0 0 0 0 0 1 0 " />
    </filter>
    <filter
       id="filter960"
       style="color-interpolation-filters:sRGB;">
      <feColorMatrix
         id="feColorMatrix958"
         values="0.21 0.72 0.072 0 0 0.21 0.72 0.072 0 0 0.21 0.72 0.072 0 0 0 0 0 1 0 " />
    </filter>
    <filter
       id="filter964"
       style="color-interpolation-filters:sRGB;">
      <feColorMatrix
         id="feColorMatrix962"
         values="0.21 0.72 0.072 0 0 0.21 0.72 0.072 0 0 0.21 0.72 0.072 0 0 0 0 0 1 0 " />
    </filter>
    <filter
       id="filter968"
       style="color-interpolation-filters:sRGB;">
      <feColorMatrix
         id="feColorMatrix966"
         values="0.21 0.72 0.072 0 0 0.21 0.72 0.072 0 0 0.21 0.72 0.072 0 0 0 0 0 1 0 " />
    </filter>
  </defs>
  <g
     id="g909">
    <path
       d="m 40.077613,59.049129 c -5.97818,0 -12.44015,0.337528 -18.100491,2.447076 -3.920385,1.468246 -3.865256,3.094005 -3.865256,6.834938 0,3.454035 -0.579985,5.721097 2.998935,7.284976 5.767225,2.531458 12.774865,2.795855 18.966812,2.795855 5.974805,0 12.434525,-0.331902 18.094303,-2.441451 4.225848,-1.580755 3.861318,-3.611548 3.861318,-7.633754 0,-3.229016 0.338091,-5.023539 -2.996684,-6.486159 -5.763287,-2.537084 -12.769802,-2.801481 -18.958937,-2.801481"
       style="fill:url(#XMLID_52_);stroke-width:1;filter:url(#filter968)"
       id="path12" />
    <path
       d="m 19.251585,62.227516 c -2.564649,1.715766 -2.385759,8.376315 -1.619008,11.104664 1.624071,5.7661 16.581053,5.501704 20.881157,5.586086 6.230764,0.118134 18.746857,0.725684 23.402491,-4.545375 1.695514,-1.918283 1.461495,-10.120209 -0.487165,-11.745967 0,2.576462 1.284855,8.528202 -0.165952,10.806515 -1.248852,1.963286 -4.777706,2.598964 -6.823687,3.065877 -4.692199,1.063213 -9.561037,1.395115 -14.361245,1.395115 -4.803583,0 -9.674672,-0.331902 -14.368559,-1.395115 -2.047106,-0.466913 -5.577084,-1.102591 -6.8265,-3.065877 -1.564441,-2.452702 -0.09732,-8.702592 0.368468,-11.205923"
       style="fill:url(#XMLID_53_);stroke-width:1;filter:url(#filter964)"
       id="path19" />
    <path
       d="m 60.997024,63.892653 c 0.149075,3.701555 0.547358,6.868691 -3.168261,8.871356 -6.657736,3.594671 -15.631475,3.40903 -22.954703,3.217765 -3.856818,-0.101259 -12.576286,0.421909 -15.375517,-3.144634 -1.390052,-1.772021 -0.410096,-6.789935 -0.341466,-8.944487 -1.190348,1.33886 -1.229726,8.488824 -0.01181,9.822059 4.216285,4.618505 15.431771,4.123465 20.931787,4.123465 5.939926,0 15.605035,0.292524 20.564444,-3.785937 1.597069,-1.316359 1.665137,-8.685716 0.355529,-10.159587"
       style="fill:#a85e14;stroke-width:1;filter:url(#filter960)"
       id="path21" />
    <path
       d="m 61.228231,65.974074 c 0,1.15322 -3.833754,2.407699 -4.551563,2.66647 -5.241244,1.890156 -11.012407,2.30644 -16.54055,2.30644 -5.603524,0 -11.41744,-0.500666 -16.71944,-2.441451 -0.267209,-0.09563 -4.715826,-2.4302 -4.471118,-2.565212 0.574922,-0.315025 4.172406,1.428868 4.809771,1.592007 5.321689,1.378238 10.903836,1.727017 16.380787,1.727017 5.469076,0 11.054036,-0.337528 16.367286,-1.727017 0.321214,-0.08438 4.724827,-1.299482 4.724827,-1.558254"
       style="fill:#ffb600;stroke-width:1;filter:url(#filter956)"
       id="path23" />
    <path
       d="m 20.01271,63.397612 c 4.516685,4.275352 14.366309,4.027832 20.065466,4.027832 5.698032,0 15.548218,0.24752 20.065465,-4.027832 -4.526248,-4.269727 -14.362933,-4.033457 -20.065465,-4.033457 -5.703658,0 -15.539218,-0.23627 -20.065466,4.033457"
       style="fill:#d6943c;stroke-width:1;filter:url(#filter952)"
       id="path25" />
    <path
       d="m 32.131646,52.877995 c -2.625404,2.284501 -17.067093,9.186382 -7.828957,11.959736 9.287077,2.79023 21.086487,2.638342 30.449508,0.298149 3.213827,-0.804441 5.859483,-2.092672 2.693472,-5.141673 -2.806544,-2.711474 -6.518225,-4.327669 -9.640919,-6.625109 -2.233872,-1.64151 -4.647196,-5.670467 -7.466678,-6.271266 -3.347713,-0.713309 -6.077188,3.927698 -8.206426,5.780163"
       style="fill:#ffe600;stroke-width:1;filter:url(#filter948)"
       id="path27" />
    <path
       d="m 46.200368,52.561844 c -1.991977,-1.631384 -4.372111,-5.559645 -7.254598,-5.537706 1.075589,0.763376 1.63926,2.374508 2.355382,3.432095 1.28598,1.899157 3.016373,3.244205 4.845211,4.588128 1.781584,1.309608 9.282015,6.277455 4.967847,8.533266 -3.555293,1.862028 -8.133858,1.800148 -12.028929,1.850777 -5.366129,0.07313 -10.924087,-0.129385 -16.146767,-1.473871 8.950675,3.409031 21.298567,2.925241 30.46976,0.776314 3.178387,-0.742561 6.296581,-1.957661 3.031,-5.09667 -3.00231,-2.8853 -7.026767,-4.453117 -10.238906,-7.072333"
       style="fill:#ffce00;stroke-width:1;filter:url(#filter944)"
       id="path29" />
    <path
       d="m 31.652919,54.863784 c -2.265936,2.610215 -6.171696,3.499038 -7.992658,6.553665 -2.722724,4.567876 6.335959,4.832273 9.023806,5.051666 3.946262,0.315026 7.952155,0.18564 11.902355,-0.0056 3.475974,-0.168764 7.847522,-0.06188 11.046723,-1.653887 3.13282,-1.552628 -7.919528,-1.907032 -8.731282,-1.88453 -2.84761,0.06751 -11.226175,1.411991 -12.292763,-2.486455 -0.868009,-3.167136 1.335485,-6.524975 2.138239,-9.483968 0.968705,-3.573295 -4.854775,3.632924 -5.09442,3.909134"
       style="fill:#faff9f;stroke-width:1;filter:url(#filter940)"
       id="path31" />
    <path
       d="m 20.92066,61.338692 c 1.163909,-4.670822 3.477662,-8.574331 7.259661,-11.591829 2.963494,-2.365508 7.993221,-4.755767 8.698654,-8.953488 0.775189,-4.625256 -1.814212,-7.537558 -5.552895,-9.74724 -4.747329,-2.790793 -8.270556,-6.419217 -9.964383,-11.749906 -1.080652,-3.401718 -0.389283,-4.684886 3.240829,-5.869608 4.990349,-1.628572 10.491489,-1.976226 15.705169,-1.976226 5.120296,0 10.477988,0.357217 15.396893,1.880593 3.668365,1.136343 4.64832,2.328379 3.553605,5.847669 -1.355736,4.360859 -3.837691,7.887462 -7.627566,10.481364 -3.018623,2.066795 -7.834582,3.677927 -8.502888,7.878461 -1.600444,10.07633 10.404295,10.852644 14.466442,18.115117 1.082339,1.932909 3.845004,6.720179 1.30117,8.480949 -4.097025,2.829608 -10.651815,3.015248 -15.432334,3.22339 C 39.684956,67.521077 19.251585,68.04987 20.92066,61.338692 M 40.307695,10.107035 c -5.486515,0 -11.312245,0.358342 -16.5383,2.169178 -4.170156,1.446307 -5.03479,3.531104 -3.789312,7.443614 1.639822,5.152924 5.0151,9.128439 9.612792,11.900667 3.428157,2.065671 7.798017,5.426322 5.524767,10.083081 -2.002102,4.102088 -7.342917,6.139631 -10.442548,9.312392 -2.917927,2.97587 -4.661821,7.149964 -5.424071,11.211549 -1.397365,7.52687 22.944015,6.615545 26.601128,6.339897 4.455367,-0.337528 10.102208,-0.714434 13.907271,-3.347151 2.309815,-1.608882 1.613945,-3.819689 0.875885,-6.143006 -1.679764,-5.279497 -4.97516,-8.813976 -9.761867,-11.429816 -3.368527,-1.835589 -6.731992,-4.061022 -6.423717,-8.348751 0.347654,-4.845774 4.506559,-6.13513 8.022474,-8.542828 C 56.762175,27.818244 59.52034,23.73247 60.88789,18.747746 63.341155,9.8156357 45.767769,10.107035 40.307695,10.107035"
       style="fill:#d7aeae;stroke-width:1;filter:url(#filter936);fill-opacity:1"
       id="path130" />
    <path
       d="m 39.960604,1.5265154 c -6.125567,0 -12.881186,0.3319023 -18.641661,2.6304667 -3.97439,1.5858181 -3.664989,3.6453002 -3.664989,7.3749829 0,3.729682 -0.307713,5.789164 3.665552,7.376107 6.220637,2.482517 13.601807,2.743539 20.208352,2.615841 5.721659,-0.109134 12.053118,-0.483228 17.39112,-2.746914 3.739245,-1.585818 3.346588,-3.700992 3.346588,-7.245034 0,-3.5440424 0.392657,-5.6592166 -3.346588,-7.2439096 -5.79479,-2.4560774 -12.755176,-2.76154 -18.958374,-2.76154"
       style="fill:#f4f2f2;stroke-width:1;filter:url(#filter932)"
       id="path132" />
    <path
       d="m 17.098158,7.4968197 c 0,2.5753373 -0.893324,6.7837463 0.252583,9.1548793 2.002103,4.142029 10.417233,4.572939 14.23411,4.970659 6.36915,0.663242 12.851934,0.593487 19.195769,-0.297587 2.92074,-0.410096 12.040742,-1.349548 12.040742,-5.758224 C 63.28715,13.475 63.538608,8.4182706 62.568778,6.4122303 60.566113,2.2702016 52.15267,1.8404162 48.335794,1.442696 41.966081,0.77889129 35.48386,0.84864704 29.140587,1.7397204 26.220409,2.1498167 17.098158,3.0892691 17.098158,7.4968197 m 1.112154,8.0697273 c 0,-2.357069 -0.705996,-5.8426064 0,-8.0697273 0,-3.4382832 8.724531,-4.3754854 10.87177,-4.6950118 7.15559,-1.0643376 14.601453,-1.0654627 21.757043,0 2.146677,0.3195264 10.870645,1.2567286 10.870645,4.6950118 0.528231,1.6679499 0.528231,6.4017773 0,8.0697273 0,3.439408 -8.722843,4.37661 -10.870645,4.696137 -7.155027,1.065463 -14.601453,1.064337 -21.757043,0 -2.148364,-0.319527 -10.87177,-1.256729 -10.87177,-4.696137"
       style="fill:url(#XMLID_63_);stroke-width:1;filter:url(#filter928)"
       id="path139" />
    <path
       d="m 39.960604,1.8482919 c -5.976493,0 -12.437337,0.3352776 -18.097679,2.4476391 -3.920385,1.463183 -3.864131,3.0940049 -3.864131,6.829875 0,3.45516 -0.57886,5.720534 2.998935,7.291726 5.765537,2.530333 12.772052,2.79698 18.962875,2.79698 5.975929,0 12.436774,-0.334152 18.095428,-2.447076 4.227535,-1.579068 3.863568,-3.61211 3.863568,-7.636004 0,-3.2278913 0.33809,-5.0207265 -2.997247,-6.4861597 C 53.158503,2.1149389 46.151426,1.8482919 39.960604,1.8482919"
       style="fill:url(#XMLID_64_);stroke-width:1;filter:url(#filter924)"
       id="path148" />
    <path
       d="m 61.092094,6.43867 c -0.03938,3.4990383 0.163139,7.086959 -3.31621,8.928736 -6.706678,3.550229 -15.981942,2.971932 -23.30067,2.85661 C 30.833852,18.166636 21.865738,19.047584 19.158202,15.670618 17.73496,13.894097 18.755419,8.6162869 18.8263,6.43867 c -1.320296,1.4839973 -1.275855,9.094687 0.284086,10.471238 4.8604,4.289415 14.910853,3.983953 20.849655,3.983953 5.939364,0 15.987567,0.3049 20.84853,-3.983953 1.559378,-1.375426 1.60607,-8.9900535 0.283523,-10.471238"
       style="fill:#a85e14;stroke-width:1;filter:url(#filter920)"
       id="path150" />
    <path
       d="m 61.112909,8.7737999 c 0,1.1526574 -3.835441,2.4043231 -4.552688,2.6647821 -5.242932,1.896906 -11.014657,2.312628 -16.54505,2.312628 -5.604087,0 -11.417441,-0.503479 -16.718315,-2.445389 -0.270585,-0.09901 -4.710201,-2.4375133 -4.471118,-2.5652114 0.582235,-0.3150259 4.166218,1.4232424 4.809771,1.5897564 5.321688,1.378801 10.903836,1.725329 16.380224,1.725329 5.470763,0 11.056848,-0.331902 16.371786,-1.725329 0.322902,-0.08438 4.72539,-1.2994824 4.72539,-1.5565661"
       style="fill:#ffb600;stroke-width:1;filter:url(#filter916)"
       id="path152" />
    <path
       d="M 20.029024,6.6614384 C 26.1124,9.7852582 34.215318,9.7683818 40.846614,9.6772493 45.160219,9.6181819 49.50139,9.3678488 53.762678,8.6652284 55.818222,8.3254504 58.98142,8.017175 60.557113,6.4431704 55.111102,2.1993208 44.688806,2.7309271 38.275777,2.8243098 33.70115,2.8923779 23.238351,2.3011417 20.029024,6.6614384"
       style="fill:#d6943c;stroke-width:1;filter:url(#filter912)"
       id="path154" />
    <path
       d="m 45.971411,4.2919932 c 0.751,0.013501 12.590912,0.662117 12.590912,1.8895931 0,-1.9931016 -16.759943,-2.780104 -18.062237,-2.8037309 -1.248291,-0.021939 -18.189374,0.1406366 -18.189374,2.4617028 0,1.1340934 13.583244,1.7118285 14.478255,1.7512067 1.108217,0.048942 7.995471,1.2601038 6.480534,-0.8933236 -1.55094,-2.203494 0.744249,-2.4408885 2.70191,-2.4054481"
       style="fill:#ffb600;stroke-width:1;filter:url(#filter908)"
       id="path156" />
    <path
       d="m 44.224142,34.097949 c 1.616758,-1.402428 4.114464,-2.007166 5.300874,-3.882695 1.642073,-2.595589 -3.270081,-2.800919 -4.834523,-2.977558 -1.85359,-0.210392 -17.563822,-0.444974 -13.464546,3.291459 3.673427,3.348275 8.510763,4.822709 9.226322,10.529742 0.212643,1.69664 -1.045211,0.805004 -1.079526,-0.279586 -0.08832,-2.790229 2.804856,-5.281185 4.851399,-6.681362"
       style="fill:#ffe600;stroke-width:1;filter:url(#filter904)"
       id="path158" />
    <path
       d="m 42.726644,35.24048 c -0.572672,-0.664367 -1.979601,0.337528 -2.629342,-0.221081 -1.357987,-1.114966 -2.727224,-2.290688 -3.794375,-3.697617 -2.962369,-3.908009 2.533146,-4.080711 5.376818,-4.305729 -1.242102,-0.04669 -11.975486,-0.08045 -9.863687,2.785167 2.424012,3.290896 6.699364,3.906884 8.693591,7.865523 0.617676,-0.908513 1.384989,-1.711266 2.216995,-2.426263"
       style="fill:#ffce00;stroke-width:1;filter:url(#filter900)"
       id="path160" />
    <path
       d="m 49.098044,28.694691 c 0,1.994789 -17.886724,1.995914 -17.886724,0 0,-1.979038 17.886724,-1.977913 17.886724,0"
       style="fill:#faff9f;stroke-width:1;filter:url(#filter896)"
       id="path162" />
  </g>
</svg>
