<?xml version="1.0" encoding="UTF-8" standalone="no"?>
<svg xmlns="http://www.w3.org/2000/svg" xml:space="preserve" viewBox="0 0 64 64" height="64" width="64" version="1.1">
<rect
   y="-51.563541"
   x="33.589401"
   height="35.588772"
   width="29.590664"
   id="rect860"
   style="opacity:1;fill:#d0d4ec;fill-opacity:1;stroke:#ffffff;stroke-width:1;stroke-linecap:round;stroke-linejoin:miter;stroke-miterlimit:4;stroke-dasharray:none;stroke-opacity:1;paint-order:fill markers stroke" /><g
   id="g888"><rect
     style="opacity:1;fill:#ffffff;fill-opacity:1;stroke:none;stroke-width:1;stroke-linecap:round;stroke-linejoin:miter;stroke-miterlimit:4;stroke-dasharray:none;stroke-opacity:1;paint-order:fill markers stroke"
     id="rect878"
     width="50.68401"
     height="17.694418"
     x="7.1977291"
     y="26.31189" /><path
     style="opacity:1;fill:#ffffff;fill-opacity:1;stroke:none;stroke-width:1.00000012;stroke-linecap:round;stroke-linejoin:miter;stroke-miterlimit:4;stroke-dasharray:none;stroke-opacity:1;paint-order:fill markers stroke"
     d="m 10.84161,2.4322975 28.990853,0 5.898139,6.1980445 6.897824,7.53411 0,44.322502 H 10.84161 Z"
     id="rect860-8" /><path
     id="path2"
     d="m 55.979061,23.177096 h -1.488794 v -7.183321 c 0,-0.04512 -0.007,-0.0899 -0.013,-0.135694 -0.0024,-0.285185 -0.09329,-0.565394 -0.288576,-0.787028 L 42.23503,1.4155637 c -0.0037,-0.00351 -0.0072,-0.00475 -0.0096,-0.00825 -0.07124,-0.079607 -0.15424,-0.1460976 -0.242328,-0.2030893 -0.02589,-0.017753 -0.05213,-0.03234 -0.07938,-0.04738 -0.07599,-0.041274 -0.15684,-0.075989 -0.23984,-0.1009793 -0.02262,-0.00588 -0.04286,-0.015153 -0.06525,-0.021259 -0.09036,-0.021263 -0.1841,-0.0346064 -0.278973,-0.0346064 H 11.941263 c -1.341452,0 -2.4313041,1.0910958 -2.4313041,2.4314169 V 23.176417 H 8.0213917 c -1.9190576,0 -3.4751327,1.55551 -3.4751327,3.474907 v 18.071097 c 0,1.918492 1.5560751,3.475585 3.4751327,3.475585 h 1.4885672 v 12.37069 C 9.5099589,61.909131 10.599811,63 11.941263,63 H 52.05885 c 1.340321,0 2.431304,-1.090869 2.431304,-2.431304 V 48.198119 h 1.488794 c 1.918492,0 3.474793,-1.556414 3.474793,-3.475019 V 26.652002 c 1.13e-4,-1.919397 -1.556188,-3.474906 -3.47468,-3.474906 z M 11.941263,3.431982 H 40.10395 v 12.439329 c 0,0.671687 0.5447,1.215708 1.215709,1.215708 h 10.739304 v 6.090529 h -40.1177 z m 30.620565,35.54514 c 0.886875,0 1.871112,-0.192347 2.449962,-0.425063 l 0.442815,2.29561 c -0.539158,0.268674 -1.753736,0.559626 -3.335028,0.559626 -4.49465,0 -6.807786,-2.796435 -6.807786,-6.498856 0,-4.435623 3.162696,-6.904016 7.097041,-6.904016 1.522604,0 2.680529,0.309496 3.201257,0.578849 l -0.597621,2.333943 c -0.597847,-0.251713 -1.426487,-0.482054 -2.468733,-0.482054 -2.334056,0 -4.145802,1.407151 -4.145802,4.300042 -6.79e-4,2.601148 1.542166,4.241919 4.163895,4.241919 z m -8.582669,-4.396159 c 0,4.261369 -2.584299,6.845442 -6.382611,6.845442 -3.857451,0 -6.11371,-2.912793 -6.11371,-6.614535 0,-3.89522 2.487165,-6.808013 6.32562,-6.808013 3.993146,0 6.170701,2.990026 6.170701,6.577106 z M 8.6577983,41.156939 V 28.390021 c 1.0801272,-0.173237 2.4876167,-0.268562 3.9724527,-0.268562 2.468507,0 4.068682,0.442816 5.320915,1.388154 1.350725,1.002216 2.199945,2.603183 2.199945,4.897549 0,2.487051 -0.906551,4.204376 -2.160367,5.264489 -1.369496,1.137345 -3.452065,1.6782 -5.998257,1.6782 -1.522151,-5.66e-4 -2.6021653,-0.09747 -3.3346887,-0.192912 z M 52.058963,59.910353 h -40.1177 V 48.198119 H 52.05885 v 11.712234 z m 2.228894,-18.696536 -1.177036,-2.352488 c -0.482054,-0.905986 -0.790646,-1.58197 -1.156908,-2.333491 h -0.03867 c -0.270031,0.752652 -0.597055,1.427505 -1.001989,2.333491 l -1.080128,2.352488 h -3.355608 l 3.760317,-6.576427 -3.624623,-6.421284 h 3.375285 l 1.137344,2.372842 c 0.385938,0.789176 0.674288,1.426374 0.983106,2.158898 h 0.03788 c 0.308591,-0.829093 0.560304,-1.407377 0.886875,-2.158898 l 1.099238,-2.372842 h 3.356513 l -3.664426,6.344051 3.856547,6.65366 z"
     style="fill:#1f39fd;fill-opacity:1;stroke:none;stroke-width:1;stroke-miterlimit:4;stroke-dasharray:none;stroke-opacity:1" /><path
     id="path4"
     d="m 17.026635,34.5026 c 0.01866,-2.699074 -1.562068,-4.126692 -4.087792,-4.126692 -0.656648,0 -1.080128,0.05812 -1.331162,0.116132 v 8.503514 c 0.251713,0.05756 0.656534,0.05756 1.023022,0.05756 2.661193,0.02024 4.395932,-1.444693 4.395932,-4.550511 z"
     style="fill:#1f39fd;fill-opacity:1;stroke:none;stroke-width:0.99999994;stroke-miterlimit:4;stroke-dasharray:none;stroke-opacity:1" /><path
     id="path6"
     d="m 24.588769,34.753182 c 0,2.545966 1.195807,4.339054 3.162697,4.339054 1.986452,0 3.122893,-1.888753 3.122893,-4.415156 0,-2.334056 -1.117783,-4.339619 -3.1437,-4.339619 -1.985887,5.66e-4 -3.14189,1.890562 -3.14189,4.415721 z"
     style="fill:#1f39fd;fill-opacity:1;stroke:none;stroke-width:0.99999994;stroke-miterlimit:4;stroke-dasharray:none;stroke-opacity:1" /></g>
<g
   transform="translate(0,-484.29102)"
   id="g10">
</g>
<g
   transform="translate(0,-484.29102)"
   id="g12">
</g>
<g
   transform="translate(0,-484.29102)"
   id="g14">
</g>
<g
   transform="translate(0,-484.29102)"
   id="g16">
</g>
<g
   transform="translate(0,-484.29102)"
   id="g18">
</g>
<g
   transform="translate(0,-484.29102)"
   id="g20">
</g>
<g
   transform="translate(0,-484.29102)"
   id="g22">
</g>
<g
   transform="translate(0,-484.29102)"
   id="g24">
</g>
<g
   transform="translate(0,-484.29102)"
   id="g26">
</g>
<g
   transform="translate(0,-484.29102)"
   id="g28">
</g>
<g
   transform="translate(0,-484.29102)"
   id="g30">
</g>
<g
   transform="translate(0,-484.29102)"
   id="g32">
</g>
<g
   transform="translate(0,-484.29102)"
   id="g34">
</g>
<g
   transform="translate(0,-484.29102)"
   id="g36">
</g>
<g
   transform="translate(0,-484.29102)"
   id="g38">
</g>
</svg>