<?xml version="1.0" encoding="UTF-8" standalone="no"?>
<svg
   xmlns="http://www.w3.org/2000/svg"
   id="svg2"
   version="1.1"
   viewBox="0 0 64 64"
   height="64"
   width="64">
  <g
     id="g821">
    <path
       style="fill:#2a5699;stroke-width:1;stroke-miterlimit:4;stroke-dasharray:none;stroke:#ffffff;stroke-opacity:1"
       d="m 33.403222,1.7129586 h 4.212011 c 0,1.880614 0,3.7541844 0,5.6347984 7.536543,0.042261 15.066043,-0.077478 22.595542,0.042261 1.605918,-0.1620005 2.866704,1.0846987 2.71879,2.690616 0.11974,13.875691 -0.02817,27.758426 0.07044,41.634117 -0.07044,1.422786 0.14087,3.00053 -0.683219,4.261316 -1.028351,0.732524 -2.359572,0.640959 -3.556967,0.697306 -7.050541,-0.03522 -14.094039,-0.02113 -21.144581,-0.02113 0,1.880614 0,3.754184 0,5.634798 H 33.213047 C 22.492843,60.328949 11.744465,58.532857 1.0031308,56.652243 c -0.007044,-16.432481 0,-32.864962 0,-49.290399 C 11.800813,5.4741865 22.605539,3.6358336 33.403222,1.7129586 Z"
       id="path6" />
    <path
       style="fill:#ffffff;stroke-width:1"
       d="m 37.615233,9.4608064 c 7.747848,0 15.495696,0 23.243544,0 0,15.0237816 0,30.0546056 0,45.0783876 -7.747848,0 -15.495696,0 -23.243544,0 0,-1.880614 0,-3.754185 0,-5.634799 6.106713,0 12.206382,0 18.313095,0 0,-0.936785 0,-1.880614 0,-2.817399 -6.106713,0 -12.206382,0 -18.313095,0 0,-1.176264 0,-2.345485 0,-3.521749 6.106713,0 12.206382,0 18.313095,0 0,-0.936785 0,-1.880614 0,-2.817399 -6.106713,0 -12.206382,0 -18.313095,0 0,-1.176264 0,-2.345485 0,-3.521749 6.106713,0 12.206382,0 18.313095,0 0,-0.936785 0,-1.880614 0,-2.817399 -6.106713,0 -12.206382,0 -18.313095,0 0,-1.176265 0,-2.345485 0,-3.521749 6.106713,0 12.206382,0 18.313095,0 0,-0.936786 0,-1.880614 0,-2.8174 -6.106713,0 -12.206382,0 -18.313095,0 0,-1.176264 0,-2.345484 0,-3.521749 6.106713,0 12.206382,0 18.313095,0 0,-0.936785 0,-1.880614 0,-2.817399 -6.106713,0 -12.206382,0 -18.313095,0 0,-1.176264 0,-2.345485 0,-3.521749 6.106713,0 12.206382,0 18.313095,0 0,-0.936785 0,-1.880614 0,-2.817399 -6.106713,0 -12.206382,0 -18.313095,0 0,-1.641135 0,-3.289314 0,-4.9304486 z"
       id="path46" />
    <path
       style="fill:#ffffff;stroke-width:1"
       d="m 15.554998,21.906667 c 1.338264,-0.07748 2.676529,-0.133826 4.014794,-0.204261 0.936785,4.754361 1.8947,9.501679 2.908964,14.234909 0.795915,-4.888187 1.676353,-9.762288 2.528616,-14.643432 1.4087,-0.0493 2.817399,-0.126783 4.219055,-0.211305 -1.59183,6.82515 -2.986443,13.706647 -4.726187,20.489536 -1.176264,0.612784 -2.937139,-0.02817 -4.331751,0.07044 -0.936785,-4.662796 -2.028528,-9.297418 -2.866704,-13.981344 -0.824089,4.5501 -1.894701,9.057939 -2.83853,13.579864 -1.352351,-0.07044 -2.711746,-0.154957 -4.071141,-0.246522 C 9.222893,34.796269 7.8494109,28.640251 6.7576687,22.427886 c 1.2044381,-0.05635 2.4159198,-0.105652 3.6203583,-0.147913 0.72548,4.486708 1.549569,8.952286 2.183484,13.446037 0.993133,-4.606447 2.007397,-9.212895 2.993487,-13.819343 z"
       id="path88" />
  </g>
</svg>
