<?xml version="1.0" encoding="UTF-8" standalone="no"?>
<svg
   xmlns="http://www.w3.org/2000/svg"
   version="1.1"
   viewBox="0 0 64 64"
   xml:space="preserve"
   width="64"
   height="64">
	 <path id="rect868" d="m 12.679188,3.5386784 3.007558,-1.6550237 h 26.992801 l 6.553558,6.573912 7.123434,7.0827283 -0.01827,41.743321 -1.671003,3.215727 -3.154662,1.546803 H 16.098961 L 12.893417,60.580754 10.909032,56.75445 V 6.6498319 Z" style="fill:#ffffff; fill-opacity:1; stroke:#673ab7; stroke-width:0; stroke-linecap:round; stroke-linejoin:round; stroke-miterlimit:4; stroke-dasharray:none; stroke-opacity:1"
	  />
	 <path
     style="fill:#ed1c24;stroke-width:0.124"
     id="path4"
     d="M 57.048,14.9128 43.222,1.2976 C 43.036,1.1116 42.7756,1 42.5028,1 H 16.996 C 13.1396,1 10.0148,4.2984 10.0148,8.3656 V 35.5464 H 6.6172 v 18.4264 h 3.3976 v 1.6616 C 10.0148,59.6892 13.152,63 16.996,63 h 33.4056 c 3.8564,0 6.9812,-3.2984 6.9812,-7.3656 V 15.7188 c 0,-0.2976 -0.1116,-0.5952 -0.3348,-0.806 z M 42.1556,3.2816 54.1836,15.136 h -6.5472 c -3.0256,0 -5.4808,-2.418 -5.4808,-5.3816 z m 13.1192,52.3528 c 0,2.8396 -2.1824,5.146 -4.8732,5.146 H 16.996 c -2.6908,0 -4.8732,-2.3064 -4.8732,-5.146 v -1.6616 h 23.188 c 4.526,0 8.184,-4.1292 8.184,-9.2132 0,-5.084 -3.6704,-9.2132 -8.184,-9.2132 H 12.1228 V 8.3656 c 0,-2.8396 2.1824,-5.146 4.8732,-5.146 h 23.0516 v 6.5348 c 0,4.1912 3.3976,7.6012 7.5888,7.6012 h 7.6384 z M 13.1396,49.4096 v -9.3 h 3.5588 c 1.0292,0 1.8352,0.2604 2.4056,0.7936 0.5704,0.5332 0.868,1.2276 0.868,2.0956 0,0.868 -0.2852,1.5748 -0.868,2.0956 -0.5828,0.5208 -1.3888,0.7936 -2.4056,0.7936 h -2.0088 v 3.5216 z m 8.7172,0 v -9.3 h 3.0752 c 1.178,0 2.1328,0.372 2.8768,1.1036 0.744,0.7316 1.1036,1.6864 1.1036,2.8396 v 1.4136 c 0,1.1656 -0.372,2.108 -1.1036,2.8396 -0.744,0.7316 -1.6988,1.1036 -2.8768,1.1036 z m 14.4584,-5.208 v 1.24 h -3.7448 v 3.968 H 31.008 v -9.3 h 5.952 v 1.24 h -4.402 v 2.8396 h 3.7572 z"
     class="st0" />
	 <path
     style="fill:#ed1c24;stroke-width:0.124"
     id="path6"
     d="m 18.0004,44.1768 c 0.2852,-0.31 0.434,-0.6944 0.434,-1.1656 0,-0.4712 -0.1488,-0.868 -0.434,-1.178 -0.2852,-0.31 -0.7192,-0.4712 -1.302,-0.4712 h -2.0088 v 3.286 h 2.0088 c 0.5828,-0.0124 1.0044,-0.1612 1.302,-0.4712 z"
     class="st0" /><path
     style="fill:#ed1c24;stroke-width:0.124"
     id="path8"
     d="m 24.932,41.362 h -1.5252 v 6.82 h 1.5252 c 0.744,0 1.3392,-0.248 1.7732,-0.7564 0.434,-0.5084 0.6572,-1.1532 0.6572,-1.9468 v -1.426 c 0,-0.7812 -0.2232,-1.426 -0.6572,-1.9344 C 26.2712,41.61 25.676,41.362 24.932,41.362 Z"
     class="st0" /></svg>