<?xml version="1.0" encoding="UTF-8" standalone="no"?>
<svg
   xmlns:dc="http://purl.org/dc/elements/1.1/"
   xmlns:cc="http://creativecommons.org/ns#"
   xmlns:rdf="http://www.w3.org/1999/02/22-rdf-syntax-ns#"
   xmlns:svg="http://www.w3.org/2000/svg"
   xmlns="http://www.w3.org/2000/svg"
   version="1.1"
   viewBox="0 0 64 64"
   width="64"
   height="64"
   id="svg12">
  <metadata
     id="metadata18">
    <rdf:RDF>
      <cc:Work
         rdf:about="">
        <dc:format>image/svg+xml</dc:format>
        <dc:type
           rdf:resource="http://purl.org/dc/dcmitype/StillImage" />
        <dc:title></dc:title>
      </cc:Work>
    </rdf:RDF>
  </metadata>
  <defs
     id="defs16" />
  <g
     id="g825">
    <rect
       y="14.430616"
       x="7.0950375"
       height="36.721615"
       width="50.91169"
       id="rect837"
       style="opacity:1;fill:#fffff7;fill-opacity:1;stroke:none;stroke-width:1;stroke-linecap:round;stroke-linejoin:miter;stroke-miterlimit:10;stroke-dasharray:none;stroke-opacity:1;paint-order:fill markers stroke" />
    <path
       style="fill:#d04424;stroke-width:1"
       d="m 20.375261,26.173431 h -3.87516 v 7.770672 h 3.87516 c 2.135375,0 3.87516,-1.744907 3.87516,-3.885538 0,-2.141036 -1.739785,-3.885134 -3.87516,-3.885134 z"
       id="path2" />
    <path
       style="fill:#d04424;stroke-width:1;stroke-miterlimit:4;stroke-dasharray:none;stroke:#ffffff;stroke-opacity:1"
       d="M 61.062623,10.631007 H 35.874554 V 4.8032389 C 35.874419,4.2239395 35.619543,3.6759098 35.173949,3.3066031 34.73159,2.9375659 34.138677,2.7779822 33.580943,2.8951091 L 2.5810098,8.7228776 C 1.6625951,8.8947266 0.99999942,9.6948014 0.99999942,10.631007 v 42.740654 c 0,0.932567 0.66259568,1.736416 1.58101038,1.90813 l 30.9997982,5.828038 c 0.116183,0.02291 0.23641,0.03491 0.356637,0.03491 0.449368,0 0.887145,-0.155271 1.236234,-0.447212 0.445999,-0.368498 0.70074,-0.920302 0.70074,-1.495962 V 53.371661 H 61.062488 C 62.132399,53.371661 63,52.501633 63,51.428622 v -38.85498 c 2.7e-4,-1.072472 -0.867331,-1.942635 -1.937377,-1.942635 z M 20.375261,37.829372 h -3.87516 v 5.828982 c 0,1.072337 -0.86841,1.9425 -1.937243,1.9425 -1.069373,0 -1.937917,-0.870163 -1.937917,-1.9425 V 24.230122 c 0,-1.072472 0.868544,-1.942634 1.937917,-1.942634 h 5.812403 c 4.27385,0 7.749646,3.485366 7.749646,7.771212 0,4.285576 -3.475796,7.770672 -7.749646,7.770672 z M 35.874554,22.287084 C 37.6417,19.927968 40.45517,18.40195 43.625009,18.40195 v 9.713307 h 9.687698 c 0,5.366674 -4.33639,9.71398 -9.687698,9.71398 -3.169839,0 -5.983309,-1.525749 -7.750455,-3.884864 V 22.287084 Z m 17.438153,23.31377 H 35.874554 V 41.71518 h 17.438153 c 1.069237,0 1.937243,0.870432 1.937243,1.943174 0,1.072337 -0.868006,1.9425 -1.937243,1.9425 z M 47.499899,24.230257 v -9.713981 c 5.351713,0 9.687429,4.347846 9.687563,9.713981 z"
       id="path4" />
  </g>
</svg>
